<?xml version="1.0" encoding="UTF-8"?>
<svg width="505px" height="505px" viewBox="0 0 505 505" version="1.1" xmlns="http://www.w3.org/2000/svg" xmlns:xlink="http://www.w3.org/1999/xlink">
    <!-- Generator: Sketch 64 (93537) - https://sketch.com -->
    <title>inventory-header-icon</title>
    <desc>Created with Sketch.</desc>
    <g id="Page-1" stroke="none" stroke-width="1" fill="none" fill-rule="evenodd">
        <g id="inventory-header-icon">
            <circle id="Oval" fill="#F0F0F0" cx="252.5" cy="252.5" r="252.5"></circle>
            <g id="car-(2)" transform="translate(127.000000, 152.000000)" fill="#000000" fill-rule="nonzero">
                <path d="M230.955357,68.0363636 L211.598214,22.0363636 C205.955357,8.65454545 193.071429,0 178.767857,0 L71.2321429,0 C56.9285714,0 44.0446429,8.65454545 38.4107143,22.0363636 L19.0535714,68.0363636 C7.77678571,74.1545455 0,86.1090909 0,100 L0,118.181818 C0,131.581818 7.23214286,143.181818 17.8571429,149.490909 L17.8571429,181.818182 C17.8571429,191.845455 25.8660714,200 35.7142857,200 L62.5,200 C72.3482143,200 80.3571429,191.845455 80.3571429,181.818182 L80.3571429,154.545455 L169.642857,154.545455 L169.642857,181.818182 C169.642857,191.845455 177.651786,200 187.5,200 L214.285714,200 C224.133929,200 232.142857,191.845455 232.142857,181.818182 L232.142857,149.490909 C242.767857,143.181818 250,131.581818 250,118.181818 L250,100 C250,86.1090909 242.223214,74.1545455 230.955357,68.0363636 Z M49.1071429,131.818182 C36.7767857,131.818182 26.7857143,121.645455 26.7857143,109.090909 C26.7857143,96.5363636 36.7767857,86.3636364 49.1071429,86.3636364 C61.4375,86.3636364 71.4285714,96.5363636 71.4285714,109.090909 C71.4285714,121.645455 61.4375,131.818182 49.1071429,131.818182 Z M151.785714,118.181818 L98.2142857,118.181818 C93.2857143,118.181818 89.2857143,114.109091 89.2857143,109.090909 C89.2857143,104.072727 93.2857143,100 98.2142857,100 L151.785714,100 C156.714286,100 160.714286,104.072727 160.714286,109.090909 C160.714286,114.109091 156.714286,118.181818 151.785714,118.181818 Z M49.4821429,63.6363636 L63.0178571,32.7818182 C64.4375,29.4363636 67.6607143,27.2727273 71.2321429,27.2727273 L178.767857,27.2727273 C182.339286,27.2727273 185.5625,29.4363636 187.026786,32.9181818 L200.517857,63.6363636 L49.4821429,63.6363636 Z M200.892857,131.818182 C188.5625,131.818182 178.571429,121.645455 178.571429,109.090909 C178.571429,96.5363636 188.5625,86.3636364 200.892857,86.3636364 C213.223214,86.3636364 223.214286,96.5363636 223.214286,109.090909 C223.214286,121.645455 213.223214,131.818182 200.892857,131.818182 Z" id="XMLID_378_"></path>
            </g>
        </g>
    </g>
</svg>