<?xml version="1.0" encoding="UTF-8"?>
<svg width="118px" height="18px" viewBox="0 0 118 18" version="1.1" xmlns="http://www.w3.org/2000/svg" xmlns:xlink="http://www.w3.org/1999/xlink">
    <!-- Generator: Sketch 64 (93537) - https://sketch.com -->
    <title>kHYBER</title>
    <desc>Created with Sketch.</desc>
    <defs>
        <path d="M110.1405,152.161265 L113.929182,148.373372 L113.929182,144.164777 L110.1405,144.164777 L110.1405,152.161265 Z M113.929181,162.000001 L113.929181,157.459107 L115.626985,155.761303 L121.658094,161.791623 L121.865682,162.000001 L127.225089,162.000001 L126.012711,160.786832 L118.306689,153.0816 L126.010343,145.377156 L127.222721,144.164778 L121.864893,144.164778 L116.235542,149.794129 L116.239488,149.798075 L110.140499,155.896275 L110.140499,162.000001 L113.929181,162.000001 Z M134.64264,162 L134.64264,154.41327 L142.85145,154.41327 L142.85145,162 L146.64009,162 L146.64009,144.19485 L142.85145,144.19485 L142.85145,150.62436 L134.64264,150.62436 L134.64264,144.19485 L130.854,144.19485 L130.854,162 L134.64264,162 Z M160.793719,162 L160.793719,153.681474 L160.92948,153.495197 L160.93027,153.493618 L160.944477,153.475464 L161.121282,153.233936 L166.966115,145.243763 L167.792521,144.114262 L163.10008,144.114262 L162.886967,144.404728 L158.89701,149.857273 L154.907054,144.404728 L154.693941,144.114262 L150.0015,144.114262 L150.827906,145.243763 L156.672738,153.233147 L156.849543,153.475464 L156.863751,153.493618 L156.86454,153.495197 L157.005037,153.686999 L157.005037,162 L160.793719,162 Z M180.833454,162.000002 C181.036307,162.000002 181.243106,161.988162 181.447537,161.965272 C181.652757,161.988162 181.858767,162.000002 182.062408,162.000002 C184.030155,162.000002 185.846355,160.931277 186.802997,159.210584 C187.248167,158.411014 187.48417,157.500152 187.48417,156.578239 C187.48417,155.65238 187.246588,154.73836 186.796682,153.934844 C186.498323,153.40127 186.114719,152.925317 185.65771,152.519612 C185.592986,152.462782 185.527474,152.407531 185.459593,152.353068 C185.486429,152.309656 185.512477,152.265455 185.538524,152.221254 L185.539313,152.218886 L185.540892,152.216518 L185.544049,152.210203 C185.552731,152.196785 185.560625,152.182577 185.567729,152.16837 C186.017635,151.364064 186.255217,150.450045 186.255217,149.524186 C186.255217,148.607009 186.021582,147.700093 185.579569,146.901313 C185.565361,146.874476 185.550364,146.848429 185.535367,146.822382 C184.568464,145.1451 182.768051,144.103213 180.833455,144.103213 L171.417,144.103213 L171.417,147.958197 L175.205683,147.958197 L175.205683,147.952672 L181.256524,147.952672 C181.959009,148.141317 182.461009,148.790918 182.461009,149.524186 C182.461009,150.304813 181.915597,150.967832 181.156282,151.120168 L171.417,151.120168 L171.417,162.000002 L180.833454,162.000002 Z M182.46827,158.155276 L175.205761,158.155276 L175.205761,154.992516 L182.428647,154.992516 C183.163099,155.161349 183.689805,155.818607 183.689805,156.578238 C183.689805,157.31932 183.180069,157.971841 182.46827,158.155276 Z M207.070013,147.951092 L207.070013,144.16241 L191.132289,144.16241 L191.1315,144.872788 L191.1315,147.951092 L207.070013,147.951092 Z M207.070013,162 L207.070013,158.211318 L194.920972,158.211318 L194.920972,154.380802 L205.480345,154.380802 L205.480345,150.59212 L194.920972,150.59212 L191.132289,150.56844 L191.132289,158.211318 L191.1315,158.921696 L191.1315,162 L207.070013,162 Z M214.472681,162.000001 L214.472681,154.332655 L216.813771,154.332655 C216.872969,154.332655 216.931378,154.331866 216.990576,154.331076 L216.995312,154.331076 L217.002416,154.330287 L217.046617,154.329498 L217.08924,154.327919 L217.094765,154.327919 C217.141335,154.32634 217.187115,154.324762 217.232895,154.322394 C217.254206,154.322394 217.27236,154.320815 217.285778,154.320026 C217.344187,154.316869 217.402595,154.313711 217.460215,154.309765 L217.498891,154.309765 L217.528096,154.304239 C217.587294,154.299504 217.649649,154.293979 217.718319,154.286875 C217.777517,154.281349 217.837505,154.274246 217.897492,154.267142 C217.923539,154.263985 217.949586,154.260827 217.974845,154.256881 C218.032464,154.250566 218.089294,154.241884 218.146124,154.233202 L218.153228,154.232412 L218.217951,154.222151 L218.217951,154.222151 C218.267678,154.215048 218.312668,154.207154 218.352923,154.20005 C218.466584,154.180318 218.584191,154.158217 218.700219,154.132959 L223.29005,161.659019 L223.497638,162.000001 L227.935132,162.000001 L227.27685,160.919436 L222.170811,152.547238 C222.201594,152.524348 222.231588,152.501458 222.260793,152.478568 L222.280525,152.463571 C222.301836,152.447785 222.323148,152.43121 222.34367,152.414634 C222.381556,152.38464 222.419443,152.353857 222.456541,152.323075 C222.507846,152.281241 222.557572,152.240197 222.606509,152.199153 L222.626242,152.181788 L222.626242,152.181788 C222.664918,152.148637 222.703594,152.113907 222.742271,152.079967 C222.853563,151.981303 222.966434,151.876325 223.084041,151.760297 C224.312206,150.548708 225.157555,149.022184 225.529319,147.347271 C225.669816,146.716613 225.741643,146.063065 225.741643,145.405572 C225.741643,145.198773 225.734539,144.986449 225.719543,144.775703 L225.672973,144.115052 L210.683998,144.115052 L210.683998,147.902945 L218.800461,147.902945 L218.800461,147.903734 L221.304938,147.903734 C221.068935,148.327594 220.770576,148.719091 220.422491,149.063229 C219.964692,149.515503 219.437433,149.872271 218.854924,150.12485 C218.83677,150.132743 218.818616,150.140636 218.800462,150.14774 C218.17375,150.41058 217.505995,150.543973 216.813771,150.543973 L210.683998,150.543973 L210.683998,162.000001 L214.472681,162.000001 Z" id="path-1"></path>
    </defs>
    <g id="Page-1" stroke="none" stroke-width="1" fill="none" fill-rule="evenodd">
        <g id="Desktop-HD" transform="translate(-110.000000, -144.000000)" fill="#000000" fill-rule="nonzero">
            <g id="kHYBER">
                <use xlink:href="#path-1"></use>
                <use xlink:href="#path-1"></use>
            </g>
        </g>
    </g>
</svg>