<?xml version="1.0" encoding="UTF-8"?>
<svg width="282px" height="39px" viewBox="0 0 282 39" version="1.1" xmlns="http://www.w3.org/2000/svg" xmlns:xlink="http://www.w3.org/1999/xlink">
    <!-- Generator: Sketch 64 (93537) - https://sketch.com -->
    <title>Group</title>
    <desc>Created with Sketch.</desc>
    <defs>
        <path d="M0,38 L6,32.3156645 L6,26 L0,26 L0,38 Z M5.54400535,52 L5.54400535,45.3803326 L8.028413,42.9052927 L16.8537771,51.696229 L17.1575422,52 L25,52 L23.2259198,50.2314554 L11.9496431,38.9988487 L23.2224545,27.767392 L24.9965359,26 L17.1563877,26 L8.91891897,34.2064083 L8.92469381,34.2121614 L0,43.1020528 L0,52 L5.54400535,52 Z M35.5199687,52 L35.5199687,40.9214646 L47.4800313,40.9214646 L47.4800313,52 L53,52 L53,26 L47.4800313,26 L47.4800313,35.3887029 L35.5199687,35.3887029 L35.5199687,26 L30,26 L30,52 L35.5199687,52 Z M73.771872,52 L73.771872,39.9075902 L73.9702746,39.6368048 L73.9714282,39.6345098 L73.9921916,39.6081202 L74.2505767,39.2570171 L82.7922807,27.6419243 L84,26 L77.1424141,26 L76.8309674,26.4222422 L71,34.3484563 L65.1690332,26.4222422 L64.8575865,26 L58,26 L59.2077193,27.6419243 L67.7494233,39.2558696 L68.0078084,39.6081202 L68.0285718,39.6345098 L68.0297254,39.6368048 L68.2350489,39.9156219 L68.2350489,52 L73.771872,52 Z M101.479564,52 C101.769945,52 102.065976,51.9827996 102.358617,51.9495456 C102.652388,51.9827996 102.947289,52 103.2388,52 C106.055611,52 108.655483,50.4473845 110.024906,47.9476049 C110.662163,46.7860103 111,45.4627327 111,44.1234015 C111,42.778337 110.659904,41.4504723 110.015867,40.2831438 C109.58877,39.5079814 109.039644,38.8165285 108.385439,38.2271314 C108.292788,38.1445703 108.199008,38.0643021 108.101837,37.9851808 C108.140253,37.922113 108.17754,37.8578985 108.214826,37.793684 L108.215956,37.7902437 L108.218216,37.7868033 L108.222735,37.7776298 C108.235164,37.7581364 108.246463,37.7374957 108.256632,37.7168556 C108.900668,36.548381 109.240765,35.2205163 109.240765,33.8754518 C109.240765,32.5430006 108.906318,31.2254562 108.273581,30.0650084 C108.253243,30.0260211 108.231775,29.98818 108.210307,29.9503395 C106.826195,27.5136276 104.24892,26 101.479565,26 L88,26 L88,31.6004235 L93.4234628,31.6004235 L93.4234628,31.5923967 L102.085184,31.5923967 C103.090785,31.8664552 103.809393,32.8101796 103.809393,33.8754524 C103.809393,35.0095267 103.028641,35.9727445 101.941688,36.194055 L88,36.194055 L88,52 L101.479564,52 Z M104.272237,46 L94,46 L94,41 L104.216194,41 C105.255017,41.266908 106,42.3059646 106,43.5068632 C106,44.6784378 105.27902,45.7100076 104.272237,46 Z M140,32 L140,26 L117.001139,26 L117,27.1249998 L117,32 L140,32 Z M140,52 L140,46.6972314 L122.468381,46.6972314 L122.46838,41.3359111 L137.706036,41.3359111 L137.706036,36.0331425 L122.46838,36.0331425 L117.001139,36 L117.001139,46.6972314 L117,47.6915003 L117,52 L140,52 Z M150.490483,52 L150.490483,40.8537006 L153.883145,40.8537006 C153.968933,40.8537006 154.053579,40.8525531 154.139367,40.8514055 L154.14623,40.8514055 L154.156525,40.850258 L154.220581,40.8491105 L154.282349,40.8468154 L154.290356,40.8468154 C154.357843,40.8445203 154.424186,40.8422259 154.49053,40.8387833 C154.521414,40.8387833 154.547722,40.8364882 154.567168,40.8353407 C154.651812,40.8307512 154.736457,40.826161 154.819958,40.820424 L154.876007,40.820424 L154.91833,40.8123918 C155.004118,40.8055072 155.094483,40.7974751 155.193998,40.7871479 C155.279787,40.7791158 155.366719,40.7687886 155.453652,40.7584614 C155.491399,40.7538719 155.529146,40.7492817 155.565749,40.7435447 C155.649251,40.734365 155.731607,40.7217434 155.813964,40.7091217 L155.824259,40.7079742 L155.918055,40.6930574 L155.918055,40.6930574 C155.990117,40.6827302 156.055317,40.6712555 156.113653,40.6609283 C156.278368,40.6322424 156.448801,40.6001139 156.616947,40.5633953 L163.268439,51.5043013 L163.569272,52 L170,52 L169.04603,50.4291437 L161.646461,38.2581745 C161.69107,38.2248984 161.734537,38.191623 161.77686,38.1583469 L161.805456,38.1365456 C161.83634,38.1135968 161.867223,38.0895004 161.896963,38.065404 C161.951868,38.0218008 162.006773,37.9770506 162.060534,37.9323004 C162.134884,37.871486 162.206947,37.8118185 162.277865,37.752151 L162.306462,37.7269071 L162.306462,37.7269071 C162.362511,37.6787143 162.418559,37.6282265 162.474608,37.5788862 C162.635891,37.4354554 162.799461,37.282845 162.969895,37.1141703 C164.749726,35.3528392 165.97479,33.1336767 166.513544,30.6987944 C166.717149,29.7819842 166.821239,28.831898 166.821239,27.8760754 C166.821239,27.575444 166.810944,27.2667812 166.789211,26.9604128 L166.721724,26 L145,26 L145,31.5065979 L156.762216,31.5065979 L156.762216,31.5077454 L160.391654,31.5077454 C160.049643,32.1239248 159.617267,32.6930584 159.112829,33.1933454 C158.449396,33.8508324 157.685304,34.3694781 156.841142,34.736661 C156.814834,34.7481357 156.788525,34.7596098 156.762217,34.769937 C155.854,35.1520372 154.886302,35.3459558 153.883145,35.3459558 L145,35.3459558 L145,52 L150.490483,52 Z" id="path-1"></path>
    </defs>
    <g id="Page-1" stroke="none" stroke-width="1" fill="none" fill-rule="evenodd">
        <g id="Desktop-HD-Copy-2" transform="translate(-67.000000, -114.000000)">
            <g id="Group" transform="translate(67.000000, 94.000000)">
                <path d="M252.804124,27.1066914 L253.31079,24.7600269 L212.350829,24.7600269 L211.844163,27.1066914 L252.804124,27.1066914 Z M222.830819,53 L224.830817,43.560009 L245.870797,43.560009 L247.044129,37.986681 L226.004149,37.986681 L226.804149,34.2000179 L248.564128,34.2000179 L249.764127,28.6266899 L214.244161,28.6266899 L209.070832,53 L222.830819,53 Z M246.48413,56.866663 L246.964129,54.5199986 L206.030835,54.5199986 L205.550836,56.866663 L246.48413,56.866663 Z M272.777474,56.866663 L279.604134,24.7600269 L252.537493,24.7600269 L245.710833,56.866663 L272.777474,56.866663 Z M270.057476,53 L256.297489,53 L260.270819,34.2000179 L254.057492,34.2000179 L255.25749,28.6266899 L275.230805,28.6266899 L270.057476,53 Z M281.415208,53 L281.415208,49.140625 L277.555833,49.140625 L277.555833,53 L281.415208,53 Z" id="F1." fill="#000000" fill-rule="nonzero"></path>
                <g id="kHYBER" fill-rule="nonzero">
                    <use fill="#000000" xlink:href="#path-1"></use>
                    <use fill="#C4C3C3" xlink:href="#path-1"></use>
                </g>
                <line x1="189.5" y1="20.5" x2="189.5" y2="58.5" id="Line" stroke="#979797" opacity="0.330217634" stroke-linecap="square"></line>
            </g>
        </g>
    </g>
</svg>