<svg xmlns="http://www.w3.org/2000/svg" viewBox="0 0 427.9 325"><defs><style>.cls-1,.cls-2,.cls-6{fill:#100000;}.cls-2{opacity:0.2;}.cls-3,.cls-6{opacity:0.8;}.cls-4,.cls-5{fill:none;}.cls-4{stroke:#2e2e2e;stroke-linecap:round;stroke-linejoin:round;stroke-width:15px;}.cls-5{stroke:#fff;stroke-miterlimit:10;stroke-dasharray:8 4;}.cls-7{opacity:0.3;}</style></defs><g id="Layer_2" data-name="Layer 2"><g id="Layer_2-2" data-name="Layer 2"><path class="cls-1" d="M162.44,233.88l-1.05-2.81,22.17-8.26h.25l129.59-2.89c4.82-.1,22.32-1.92,24.56-3.58l.36-1.06,11.69,2.5-.63,2.93-9.53-2c-1.28.94-4.39,1.94-12.59,3-6.26.8-12.49,1.23-13.79,1.26L184.13,225.8Z"/><path class="cls-2" d="M212.22,81.91l-19.9-26.78a26.61,26.61,0,0,0-15.26-10L127,33.34A26.41,26.41,0,0,0,116.67,33L72.91,40a26.64,26.64,0,0,0-12.14,5.3L28.62,70.38a26.59,26.59,0,0,0,1.8,43.2l24.69,16.16a26.7,26.7,0,0,0,23.74,2.71l15.86-5.84a25.57,25.57,0,0,1,25.77,4.83l17.08,15.08a26.4,26.4,0,0,0,9.28,5.32l29.53,9.72a26.59,26.59,0,0,0,22.36-2.69l3-1.86a26.7,26.7,0,0,0,12.44-20.26l3.2-36.67A26.57,26.57,0,0,0,212.22,81.91Zm-35.61,78.67-6.07-2,44.6-44.6-.77,8.84Zm-7.14-2.35-6.07-2,52.65-52.65-.77,8.84Zm-7.13-2.34-6.07-2L216.16,94a26.06,26.06,0,0,1,.21,6l-.18,2.05Zm-7.14-2.35-6.07-2L214,86.73a25.45,25.45,0,0,1,2,6Zm19-65,.25-.13,23.76-23.76,3.38,4.56-70.34,70.34-4.29-3.78Zm-48,46.57-4.28-3.79L155.24,98l.25-.13,38.65-38.64,3.38,4.56Zm76-65.09,3.44,4.63L136.26,144,132,140.25Zm-12.91-17-73.77,73.77a27.11,27.11,0,0,0-5.83-2.11L184.9,49.53A25.65,25.65,0,0,1,189.25,53.11Zm-35-12.33L62.92,132.15a25.35,25.35,0,0,1-5.73-2.33l90.57-90.57Zm-15.35-3.6L50.55,125.56l-4.87-3.19L132.4,35.64Zm-7.68-1.81L44.82,121.81l-4.88-3.19,84.71-84.7c.7.1,1.39.23,2.08.39ZM116.82,34a25.39,25.39,0,0,1,6.57-.19l-84.3,84.3-4.88-3.19L114.8,34.28Zm-26.3,4.23-67,67a25.89,25.89,0,0,1-2.66-5.41L80.91,39.72ZM28.38,71.88l-2.86,2.85A24.83,24.83,0,0,1,28.38,71.88Zm-5.92,7.33L35,66.67l26.38-20.6A25.65,25.65,0,0,1,67,42.76L19.42,90.32v-.1A25.54,25.54,0,0,1,22.46,79.21ZM19.4,91.74,69.23,41.92A25.31,25.31,0,0,1,73.07,41l6.16-1L20.5,98.71A25.44,25.44,0,0,1,19.4,91.74ZM24.07,106,92.21,37.91l9.61-1.55-74,74A25.27,25.27,0,0,1,24.07,106ZM28.61,111,103.5,36.09l9.62-1.54L33.36,114.31,31,112.75A25.47,25.47,0,0,1,28.61,111Zm22.8,15.14,88.67-88.67L146.62,39,56.3,129.3l-.64-.4Zm12.64,6.32,91.39-91.39L162,42.59,71.57,133A25.67,25.67,0,0,1,64.05,132.44Zm14.46-.93a25.92,25.92,0,0,1-5.36,1.32l90-90,6.53,1.53L84.88,129.16Zm15.85-5.84-7.24,2.67L170.8,44.66l6,1.42.48.14-78.2,78.2A26.83,26.83,0,0,0,94.36,125.67Zm6.38-1.47,77.67-77.67A25,25,0,0,1,184,49L169.3,63.71l-.3.17-60.6,60.61a25.75,25.75,0,0,0-7.66-.29Zm15.66,3.18,19.91-19.91.26-.13L190,53.89c.53.59,1,1.2,1.51,1.84l2,2.64L121.15,130.7h0A27.27,27.27,0,0,0,116.4,127.38ZM137,144.7l69.2-69.2,3.44,4.63-68.12,68.11a25.42,25.42,0,0,1-3.31-2.47Zm5.4,4.08,67.84-67.84,1.16,1.57a24.39,24.39,0,0,1,2.05,3.29l-65.39,65.39-.91-.3A25,25,0,0,1,142.41,148.78Zm59.43,6.95,7.09-7.09A25.59,25.59,0,0,1,201.84,155.73Zm8.95-10.37L198,158.12a25.49,25.49,0,0,1-11.8,3.72l27.09-27.09-.17,1.91A25.28,25.28,0,0,1,210.79,145.36Zm2.68-12.16-28.69,28.69a25.57,25.57,0,0,1-7.08-1l36.54-36.55Z"/><path class="cls-2" d="M420.83,156.58l-27.18-29.41a26.69,26.69,0,0,0-19.53-8.54H346.88A26.45,26.45,0,0,0,326,128.74L299.3,162.57a27.18,27.18,0,0,0-2.81,4.38l-13,25.38a26.7,26.7,0,0,0-1.25,21.35l18.19,49a26.43,26.43,0,0,0,21.9,17.17l35.36,4.05a28.53,28.53,0,0,0,3.06.17,26.48,26.48,0,0,0,16-5.37L415,249.8a26.51,26.51,0,0,0,10.53-20.08l2.31-54A26.74,26.74,0,0,0,420.83,156.58Zm4.23,8.57a25.67,25.67,0,0,1,1.64,6.42L319.85,278.42a26.12,26.12,0,0,1-6-2.1ZM313,275.82a25.16,25.16,0,0,1-4.71-3.35L421.63,159.09a25.9,25.9,0,0,1,3,5.06Zm86-141.45,3.87,4.19L295.34,246l-2.18-5.88ZM292.78,239.12l-2.19-5.89L394.38,129.44l3.88,4.19Zm110.71-99.83,3.88,4.2L297.91,253l-2.19-5.89Zm4.56,4.93,3.88,4.19L300.47,259.87,298.29,254Zm-15.14-16.37.79.86L290.21,232.2,288,226.31l101.5-101.5A25,25,0,0,1,392.91,127.85ZM287.64,225.28l-2.18-5.88,98-98a25.3,25.3,0,0,1,5.26,2.8Zm86.68-105.64-91.74,91.74a25.61,25.61,0,0,1-1-7.11l84.64-84.64h8.06Zm-27,0h8.07l-68.65,68.65,8.43-16.5Zm-17,6.14-2.78,2.78A26.06,26.06,0,0,1,330.26,125.77Zm-30.17,37.42L322,135.46l12.78-12.79a25.63,25.63,0,0,1,11.08-3l-49.23,49.23.76-1.49A25.58,25.58,0,0,1,300.09,163.19Zm-15.68,29.6.83-1.62,71.54-71.54h8.06l-83.17,83.18A25.68,25.68,0,0,1,284.41,192.79Zm-1.5,19.67,92.78-92.77a25.53,25.53,0,0,1,6.72,1.34l-97.33,97.34-1.87-5C283.1,213,283,212.75,282.91,212.46Zm17.95,48.44L412.6,149.15l3.88,4.19L303.36,266.46a26.79,26.79,0,0,1-2-4.11Zm3,6.44L417.16,154.08l2.94,3.18c.31.33.61.68.91,1L307.53,271.78A25.19,25.19,0,0,1,303.89,267.34ZM321,278.65l105.8-105.8a25,25,0,0,1,.05,2.87l-.23,5.38-98,98-.21.11-.33.34-5.67-.65C322,278.81,321.51,278.73,321,278.65Zm105.2-87.77L365.61,251.5l-.06.19-16.63,16.62-.13,0-12.13,12.14-7.16-.82,97.08-97.09ZM363.32,272.8l-9.64,9.64-7.17-.82,18.21-18.21.08-.21L394,234l.26-.12,31.45-31.46-.36,8.3-62.07,62.07Zm-.23-9.3a.57.57,0,0,1,0,.13L361,265.77h-.09l-15.69,15.68-7.17-.82,88.16-88.15-.35,8.29Zm-5.26,19.41-2.81-.32,3.72-3.71.05-.14,12.59-12.59h0L413,224.53l.25-.13,12.11-12.1-.36,8.29-60.17,60.17v0L362.58,283A26.08,26.08,0,0,1,357.83,282.91Zm18.34-5a25.61,25.61,0,0,1-12,4.94l14.9-14.9h0l45.87-45.87-.33,7.61q0,.42-.06.84l-44.4,44.41ZM414.43,249l-28.37,21.44.29-.3h0l38-38A25.49,25.49,0,0,1,414.43,249Z"/><path class="cls-2" d="M209.65,260.83l-.48-7.34a26.41,26.41,0,0,0-11.5-20.22l-27.95-19.14a26.74,26.74,0,0,0-16.94-4.59l-28.61,2.07a25.66,25.66,0,0,1-21.33-8.94L83.35,179.76a26.66,26.66,0,0,0-31.57-6.83l-18,8.48a26.45,26.45,0,0,0-15.25,23.34l-.25,9A26.59,26.59,0,0,0,35.7,239.4l26.37,9.67a25.45,25.45,0,0,1,12.27,9.52l10.09,14.67a26.52,26.52,0,0,0,15.86,10.83l57.64,13.48a26.72,26.72,0,0,0,17.51-1.9l19.13-9.13A26.45,26.45,0,0,0,209.65,260.83ZM158,296.56,151.47,295,204.54,242a25.33,25.33,0,0,1,2.51,5.56Zm46-55.47-53.67,53.67-6.54-1.53,56.53-56.53A25.21,25.21,0,0,1,204,241.09ZM199.58,236l-57,57-6.53-1.53,58.83-58.84,2.17,1.49A27.82,27.82,0,0,1,199.58,236ZM178,221l4.79,3.28-63.25,63.25L113,286.05Zm-66.15,64.74-6.54-1.53,67.07-67.06,4.79,3.28Zm71.78-60.89,4.79,3.28-61.2,61.2-6.54-1.53Zm5.63,3.86,4.79,3.28L135,291.17l-6.54-1.53ZM165.72,213,96.79,281.92a26.18,26.18,0,0,1-5.23-2.84l68.1-68.1A25.52,25.52,0,0,1,165.72,213Zm-27-1.43L82.12,268.14l-3.29-4.78,21.29-21.29.26-.13,29.76-29.76Zm-27.13-1.19L69.72,252.22a26.28,26.28,0,0,0-5-3.1l41.72-41.71A26.26,26.26,0,0,0,111.56,210.37ZM36,238.46a25.77,25.77,0,0,1-5.34-2.71l53.48-53.47,3.71,4.36L36.06,238.46Zm52.5-51.06,3.71,4.36L43,241l-5.9-2.17Zm4.36,5.12,3.71,4.36L49.94,243.55,44,241.39Zm4.36,5.13L101,202,56.88,246.1,51,243.93ZM73.75,173.74a25.62,25.62,0,0,1,5,3L25,230.56a25.52,25.52,0,0,1-3.14-4.92ZM21.41,224.66a25.47,25.47,0,0,1-1.82-6.24l46.78-46.79a25.77,25.77,0,0,1,6.39,1.69Zm41.66-53.25c.67,0,1.35,0,2,.09L19.43,217.17a25.94,25.94,0,0,1-.16-3.42l.13-4.62,36.76-36.77A25.88,25.88,0,0,1,63.07,171.41ZM34.2,182.31l2.11-1L21.12,196.51A25.45,25.45,0,0,1,34.2,182.31ZM20.45,198.59,39,180.06l13.22-6.22c.61-.29,1.22-.54,1.84-.77l-34.6,34.6.08-2.89A25.44,25.44,0,0,1,20.45,198.59Zm5.2,32.73,53.92-53.91a25.15,25.15,0,0,1,3,3l.94,1.1L29.88,235.16A24.93,24.93,0,0,1,25.65,231.32Zm32.26,15.16,43.7-43.71.47.54a26.13,26.13,0,0,0,3.58,3.48l-41.89,41.9c-.45-.2-.9-.39-1.36-.56Zm12.58,6.38,42.07-42.07a26.81,26.81,0,0,0,6.3,1.64L74.35,256.94A26.21,26.21,0,0,0,70.49,252.86Zm4.52,5,45.25-45.24a27.81,27.81,0,0,0,4,0l4.24-.31L78.25,262.52,75.16,258C75.12,258,75.06,257.89,75,257.82ZM82.69,269l36.36-36.36.26-.13,21.05-21.05,8.55-.61L86,273.72c-.25-.34-.52-.67-.77-1Zm3.94,5.54L138,223.18l.25-.13,12.35-12.34,2.27-.17a25,25,0,0,1,5.6.24l-67.7,67.69A26.07,26.07,0,0,1,86.63,274.52Zm11.18,7.79,68.84-68.84a24.15,24.15,0,0,1,2.5,1.48l2.43,1.66L104.21,284l-3.7-.86A27.13,27.13,0,0,1,97.81,282.31Zm61.38,14.48,48.17-48.17a24.4,24.4,0,0,1,.81,4.93l.15,2.18L167,297.08A25.73,25.73,0,0,1,159.19,296.79Zm15.82-2a25.78,25.78,0,0,1-6.37,2.06l39.76-39.77.25,3.83a26,26,0,0,1-.06,4.05l-26.4,26.4Zm19.13-9.13-9.25,4.41,23.5-23.5A25.43,25.43,0,0,1,194.14,285.64Z"/><g class="cls-3"><circle class="cls-2" cx="37.3" cy="217.03" r="23.83" transform="translate(-150.73 102.41) rotate(-48.88)"/><circle class="cls-2" cx="37.3" cy="217.03" r="19.03" transform="translate(-142.53 89.94) rotate(-45)"/></g><g class="cls-3"><circle class="cls-2" cx="334.24" cy="247.6" r="23.83" transform="translate(-77.18 308.86) rotate(-45)"/><circle class="cls-2" cx="334.24" cy="247.6" r="19.03" transform="translate(-77.18 308.86) rotate(-45)"/></g><g class="cls-3"><circle class="cls-2" cx="169.6" cy="251.48" r="23.83" transform="translate(-109.8 369.56) rotate(-78.91)"/><circle class="cls-2" cx="169.6" cy="251.48" r="19.03" transform="translate(-110.98 366.74) rotate(-78.34)"/></g><g class="cls-3"><circle class="cls-2" cx="344.12" cy="145.86" r="19.03" transform="translate(-29.62 142.79) rotate(-22.5)"/><circle class="cls-2" cx="344.12" cy="145.86" r="15.2"/></g><g class="cls-3"><circle class="cls-2" cx="157.11" cy="97.2" r="19.03" transform="translate(-22.72 139.56) rotate(-45)"/><circle class="cls-2" cx="157.11" cy="97.2" r="15.2"/></g><g class="cls-3"><circle class="cls-2" cx="75.36" cy="66.8" r="19.03" transform="translate(-7.08 124.64) rotate(-76.61)"/><circle class="cls-2" cx="75.36" cy="66.8" r="15.2"/></g><path class="cls-4" d="M281.12,148.44l52.15-3.83c5.46-.4,11.45.06,16.31,2.59L402.81,175c2.73,1.43,3.43,5.36,2.26,8.21l-15.11,37a10.3,10.3,0,0,1-12,6.1l-37-9.14a4.24,4.24,0,0,0-5.23,4.67l2,15.42A11.09,11.09,0,0,1,327,249.71l-154.15,3a5.19,5.19,0,0,1-4.78-2.95l-4.32-9a14.45,14.45,0,0,0-13.09-8.21l-54.83.23a33.73,33.73,0,0,1-8-.91l-45.73-10.7a5,5,0,0,1-2.92-7.75L49,199.91a9.12,9.12,0,0,0-1.48-12.23l-23.25-20a13.71,13.71,0,0,1-4.56-12.82l4.1-22.79a45.67,45.67,0,0,1,2.89-9.72L37.59,96.63a9.21,9.21,0,0,0,.57-1.92L39.6,86.9a6.58,6.58,0,0,1,5.73-5.35l10.56-1.18a13.44,13.44,0,0,0,7.5-3.4L72,69.19a17.61,17.61,0,0,1,7.41-4l9.93-2.55a20.27,20.27,0,0,1,10.57.11l8.77,2.45a41.46,41.46,0,0,1,12.55,5.94l35.86,25.11-3.92,9.38a11.31,11.31,0,0,0,1.29,11L178,149a40.13,40.13,0,0,0,18.44,14l16.67,6.19a39,39,0,0,0,17.81,2.21l31.32-3.39a12.47,12.47,0,0,0,8.83-5.2Z"/><path class="cls-5" d="M281.12,148.44l52.15-3.83c5.46-.4,11.45.06,16.31,2.59L402.81,175c2.73,1.43,3.43,5.36,2.26,8.21l-15.11,37a10.3,10.3,0,0,1-12,6.1l-37-9.14a4.24,4.24,0,0,0-5.23,4.67l2,15.42A11.09,11.09,0,0,1,327,249.71l-154.15,3a5.19,5.19,0,0,1-4.78-2.95l-4.32-9a14.45,14.45,0,0,0-13.09-8.21l-54.83.23a33.73,33.73,0,0,1-8-.91l-45.73-10.7a5,5,0,0,1-2.92-7.75L49,199.91a9.12,9.12,0,0,0-1.48-12.23l-23.25-20a13.71,13.71,0,0,1-4.56-12.82l4.1-22.79a45.67,45.67,0,0,1,2.89-9.72L37.59,96.63a9.21,9.21,0,0,0,.57-1.92L39.6,86.9a6.58,6.58,0,0,1,5.73-5.35l10.56-1.18a13.44,13.44,0,0,0,7.5-3.4L72,69.19a17.61,17.61,0,0,1,7.41-4l9.93-2.55a20.27,20.27,0,0,1,10.57.11l8.77,2.45a41.46,41.46,0,0,1,12.55,5.94l35.86,25.11-3.92,9.38a11.31,11.31,0,0,0,1.29,11L178,149a40.13,40.13,0,0,0,18.44,14l16.67,6.19a39,39,0,0,0,17.81,2.21l31.32-3.39a12.47,12.47,0,0,0,8.83-5.2Z"/><rect class="cls-1" x="281.07" y="262.81" width="23.53" height="8.24" transform="translate(-4.51 5.03) rotate(-0.98)"/><rect class="cls-1" x="281.16" y="271.99" width="23.53" height="0.92" transform="translate(-4.6 5.03) rotate(-0.98)"/><rect class="cls-1" x="281.19" y="273.6" width="23.53" height="0.92" transform="translate(-4.63 5.03) rotate(-0.98)"/><rect class="cls-1" x="254.09" y="263.29" width="23.53" height="8.24" transform="translate(-4.52 4.57) rotate(-0.98)"/><rect class="cls-1" x="254.19" y="272.47" width="23.53" height="0.92" transform="translate(-4.61 4.57) rotate(-0.98)"/><rect class="cls-1" x="254.21" y="274.08" width="23.53" height="0.92" transform="translate(-4.64 4.57) rotate(-0.98)"/><rect class="cls-1" x="228.53" y="263.77" width="23.53" height="8.24" transform="translate(-4.53 4.13) rotate(-0.98)"/><rect class="cls-1" x="228.62" y="272.95" width="23.53" height="0.92" transform="translate(-4.63 4.14) rotate(-0.98)"/><rect class="cls-1" x="228.65" y="274.56" width="23.53" height="0.92" transform="translate(-4.65 4.14) rotate(-0.98)"/><rect class="cls-1" x="154" y="259.22" width="15.83" height="8.24" transform="translate(170.47 572.34) rotate(-150)"/><rect class="cls-1" x="62.13" y="208.94" width="15.83" height="8.24" transform="translate(90.88 436.36) rotate(-167.13)"/><rect class="cls-1" x="-3.1" y="153.25" width="15.83" height="8.24" transform="translate(-152.34 147.88) rotate(-84.79)"/><rect class="cls-1" x="-0.72" y="132.39" width="15.83" height="8.24" transform="translate(-128.66 121.3) rotate(-80.6)"/><rect class="cls-1" x="91.39" y="75.57" width="15.83" height="8.24" transform="translate(172.75 183.7) rotate(-163.97)"/><rect class="cls-1" x="110.12" y="86.05" width="15.83" height="8.24" transform="translate(153.83 234.32) rotate(-141.32)"/><rect class="cls-1" x="187.58" y="141.74" width="15.83" height="8.24" transform="translate(256.97 381.9) rotate(-141.32)"/><rect class="cls-1" x="397.7" y="154.83" width="15.83" height="8.24" transform="translate(714.8 465.84) rotate(-156.61)"/><rect class="cls-1" x="327.98" y="198.64" width="15.83" height="8.24" transform="translate(687.25 377.38) rotate(175.31)"/><rect class="cls-1" x="302.5" y="126.54" width="15.83" height="8.24" transform="matrix(-1, 0.08, -0.08, -1, 630.47, 235.51)"/><polygon class="cls-1" points="242.17 251.46 251.33 255.32 250.49 253.34 260.26 253.34 260.26 249.58 250.49 249.58 251.33 247.6 242.17 251.46"/><circle class="cls-6" cx="269.28" cy="251.46" r="9.47"/><circle class="cls-1" cx="269.28" cy="251.46" r="7.36"/><path class="cls-6" d="M275.1,251.46a5.82,5.82,0,1,1-5.82-5.82A5.82,5.82,0,0,1,275.1,251.46Z"/><path class="cls-1" d="M272.68,251.46a3.4,3.4,0,1,1-3.4-3.4A3.4,3.4,0,0,1,272.68,251.46Z"/><g class="cls-7"><path class="cls-1" d="M372.6,313.26l1-5h.67l-.92,4.44H376l-.12.57Z"/><path class="cls-1" d="M376.55,311.88a2.53,2.53,0,0,1,.63-1.76,1.72,1.72,0,0,1,1.35-.57,1.39,1.39,0,0,1,1.06.41,1.5,1.5,0,0,1,.4,1.11,2.69,2.69,0,0,1-.25,1.16,1.87,1.87,0,0,1-.72.82,1.78,1.78,0,0,1-1,.29,1.68,1.68,0,0,1-.77-.18,1.3,1.3,0,0,1-.53-.51A1.59,1.59,0,0,1,376.55,311.88Zm.62-.06a1.09,1.09,0,0,0,.25.78.79.79,0,0,0,.62.26.91.91,0,0,0,.39-.08,1.17,1.17,0,0,0,.37-.24,1.78,1.78,0,0,0,.28-.38,2.25,2.25,0,0,0,.19-.45,2.16,2.16,0,0,0,.11-.65,1.1,1.1,0,0,0-.25-.76.81.81,0,0,0-.62-.27,1,1,0,0,0-.53.14,1.37,1.37,0,0,0-.44.4,1.76,1.76,0,0,0-.28.62A2.64,2.64,0,0,0,377.17,311.82Z"/><path class="cls-1" d="M380.33,313.26l.76-3.63h.55l-.15.74a2.46,2.46,0,0,1,.54-.62,1,1,0,0,1,.55-.2,1,1,0,0,1,.46.13l-.25.58a.6.6,0,0,0-.36-.12.94.94,0,0,0-.66.36,2.74,2.74,0,0,0-.54,1.3l-.31,1.46Z"/><path class="cls-1" d="M385.33,312l.6.06a1.76,1.76,0,0,1-.59.85,1.66,1.66,0,0,1-1.12.4,1.59,1.59,0,0,1-.74-.18,1.29,1.29,0,0,1-.51-.55,1.73,1.73,0,0,1-.18-.81,2.63,2.63,0,0,1,.28-1.15,2,2,0,0,1,.71-.83,1.78,1.78,0,0,1,1-.27,1.38,1.38,0,0,1,1,.4,1.52,1.52,0,0,1,.39,1.1,3.51,3.51,0,0,1-.05.55h-2.68a1.28,1.28,0,0,0,0,.19,1.19,1.19,0,0,0,.23.78.74.74,0,0,0,.58.27,1.08,1.08,0,0,0,.62-.21A1.31,1.31,0,0,0,385.33,312Zm-1.8-.9h2V311a1,1,0,0,0-.23-.71.76.76,0,0,0-.6-.25,1.11,1.11,0,0,0-.72.27A1.69,1.69,0,0,0,383.53,311.13Z"/><path class="cls-1" d="M386.55,313.26l.76-3.63h.62l-.12.6a2.25,2.25,0,0,1,.61-.53,1.2,1.2,0,0,1,.59-.15.88.88,0,0,1,.57.18.85.85,0,0,1,.3.5,1.94,1.94,0,0,1,.58-.51,1.23,1.23,0,0,1,.64-.17,1,1,0,0,1,.69.21.82.82,0,0,1,.22.61,3.09,3.09,0,0,1-.07.55l-.49,2.34h-.62l.5-2.4a2.4,2.4,0,0,0,.06-.42.38.38,0,0,0-.11-.28.46.46,0,0,0-.32-.1,1.11,1.11,0,0,0-.56.16,1.35,1.35,0,0,0-.45.44,2.8,2.8,0,0,0-.28.84l-.37,1.76h-.62l.52-2.45a2.64,2.64,0,0,0,.05-.36.38.38,0,0,0-.11-.28.36.36,0,0,0-.29-.11,1.11,1.11,0,0,0-.55.16,1.41,1.41,0,0,0-.47.47,2.85,2.85,0,0,0-.3.85l-.36,1.72Z"/><path class="cls-1" d="M394.5,313.26l1.05-5h.67l-1.05,5Z"/><path class="cls-1" d="M396,314.65l1-5h.58l-.11.51a2.12,2.12,0,0,1,.57-.46,1.09,1.09,0,0,1,.53-.13,1.08,1.08,0,0,1,.86.38,1.54,1.54,0,0,1,.34,1.08,2.82,2.82,0,0,1-.18,1,2.29,2.29,0,0,1-.47.75,1.88,1.88,0,0,1-.55.42,1.31,1.31,0,0,1-.57.13,1.12,1.12,0,0,1-1-.66l-.41,2Zm1.23-2.87a1.75,1.75,0,0,0,.06.56.71.71,0,0,0,.28.36.77.77,0,0,0,.45.14,1,1,0,0,0,.86-.6,2.52,2.52,0,0,0,.33-1.23,1.08,1.08,0,0,0-.22-.71.7.7,0,0,0-.55-.25.86.86,0,0,0-.44.12,1.3,1.3,0,0,0-.37.37,2.43,2.43,0,0,0-.4,1.24Z"/><path class="cls-1" d="M400.23,312l.62,0a1.26,1.26,0,0,0,.08.46.72.72,0,0,0,.3.3,1.08,1.08,0,0,0,.52.12,1,1,0,0,0,.61-.16.49.49,0,0,0,.21-.39.46.46,0,0,0-.12-.3,1.76,1.76,0,0,0-.62-.35,6.85,6.85,0,0,1-.63-.3.9.9,0,0,1-.34-.33.81.81,0,0,1-.12-.44.94.94,0,0,1,.34-.73,1.37,1.37,0,0,1,1-.31,1.54,1.54,0,0,1,1,.31,1.12,1.12,0,0,1,.37.84l-.61,0a.65.65,0,0,0-.23-.52A.89.89,0,0,0,402,310a.82.82,0,0,0-.5.14.45.45,0,0,0-.17.32.37.37,0,0,0,.15.3,3.07,3.07,0,0,0,.53.28,3.66,3.66,0,0,1,.9.48.94.94,0,0,1,.29.69,1,1,0,0,1-.17.53,1.17,1.17,0,0,1-.5.42,2,2,0,0,1-.8.15,1.78,1.78,0,0,1-1.07-.31A1.08,1.08,0,0,1,400.23,312Z"/><path class="cls-1" d="M406.15,312.6a1.81,1.81,0,0,1-1.34.74,1,1,0,0,1-.68-.24.78.78,0,0,1-.25-.59,5.12,5.12,0,0,1,.11-.78l.44-2.1h.62l-.49,2.32a2.32,2.32,0,0,0-.06.45.38.38,0,0,0,.13.32.49.49,0,0,0,.36.12,1.14,1.14,0,0,0,.51-.13,1.44,1.44,0,0,0,.43-.34,1.83,1.83,0,0,0,.29-.51,5.35,5.35,0,0,0,.18-.66l.32-1.57h.62l-.76,3.63H406Z"/><path class="cls-1" d="M407.56,313.26l.76-3.63h.62l-.13.6a2.27,2.27,0,0,1,.62-.53,1.2,1.2,0,0,1,.59-.15.87.87,0,0,1,.56.18.76.76,0,0,1,.3.5,2,2,0,0,1,.59-.51,1.2,1.2,0,0,1,.64-.17,1,1,0,0,1,.68.21.82.82,0,0,1,.23.61,3.38,3.38,0,0,1-.08.55l-.49,2.34h-.62l.5-2.4a1.86,1.86,0,0,0,.07-.42.38.38,0,0,0-.11-.28.47.47,0,0,0-.32-.1,1.12,1.12,0,0,0-.57.16,1.24,1.24,0,0,0-.44.44,2.8,2.8,0,0,0-.28.84l-.37,1.76h-.62l.51-2.45a1.84,1.84,0,0,0,.06-.36.38.38,0,0,0-.4-.39,1.08,1.08,0,0,0-.55.16,1.32,1.32,0,0,0-.47.47,2.59,2.59,0,0,0-.3.85l-.36,1.72Z"/><path class="cls-1" d="M376.54,319.9l.66.09a2.74,2.74,0,0,1-.91,1.31,2.24,2.24,0,0,1-1.36.45,1.91,1.91,0,0,1-1.44-.56,2.2,2.2,0,0,1-.54-1.6,3.16,3.16,0,0,1,.82-2.24,2.36,2.36,0,0,1,1.8-.79,1.93,1.93,0,0,1,1.29.43,1.7,1.7,0,0,1,.57,1.15l-.63.06a1.3,1.3,0,0,0-.4-.81,1.19,1.19,0,0,0-.8-.27,1.74,1.74,0,0,0-1.49.81,2.85,2.85,0,0,0-.49,1.68,1.71,1.71,0,0,0,.38,1.18,1.28,1.28,0,0,0,1,.4,1.45,1.45,0,0,0,.94-.34A1.89,1.89,0,0,0,376.54,319.9Z"/><path class="cls-1" d="M380.08,321a1.79,1.79,0,0,1-1.33.74.94.94,0,0,1-.68-.24.75.75,0,0,1-.26-.59,5.37,5.37,0,0,1,.11-.79l.44-2.09H379l-.48,2.32a2.63,2.63,0,0,0-.07.45.43.43,0,0,0,.13.32.5.5,0,0,0,.37.12,1.13,1.13,0,0,0,.5-.13,1.3,1.3,0,0,0,.43-.34,1.83,1.83,0,0,0,.29-.51,5.35,5.35,0,0,0,.18-.66l.33-1.57h.61l-.75,3.63H380Z"/><path class="cls-1" d="M381.5,321.66l.75-3.63h.55l-.15.74a2.3,2.3,0,0,1,.55-.62.91.91,0,0,1,.55-.2,1,1,0,0,1,.45.13l-.25.58a.6.6,0,0,0-.36-.12,1,1,0,0,0-.66.36,2.74,2.74,0,0,0-.54,1.3l-.31,1.46Z"/><path class="cls-1" d="M384.74,321.66l-.59-3.63h.6l.31,2c0,.22.08.57.13,1.07.12-.26.27-.55.45-.89l1.22-2.18h.65l-2.08,3.63Z"/><path class="cls-1" d="M390,320.43l.6.06a1.76,1.76,0,0,1-.59.85,1.63,1.63,0,0,1-1.11.4,1.53,1.53,0,0,1-.74-.18,1.26,1.26,0,0,1-.52-.55,1.86,1.86,0,0,1-.17-.81,2.62,2.62,0,0,1,.27-1.15,2,2,0,0,1,.71-.83,1.8,1.8,0,0,1,.95-.27,1.38,1.38,0,0,1,1,.4,1.52,1.52,0,0,1,.39,1.1,3.51,3.51,0,0,1-.05.55H388.1a1.37,1.37,0,0,0,0,.19,1.14,1.14,0,0,0,.24.78.71.71,0,0,0,.57.27,1.08,1.08,0,0,0,.62-.21A1.31,1.31,0,0,0,390,320.43Zm-1.79-.9h2c0-.07,0-.11,0-.14a1,1,0,0,0-.24-.71.75.75,0,0,0-.59-.25,1.12,1.12,0,0,0-.73.27A1.61,1.61,0,0,0,388.2,319.53Z"/></g><g class="cls-7"><path class="cls-1" d="M98.53,5l1-5h.67l-.93,4.44h2.6L101.8,5Z"/><path class="cls-1" d="M102.49,3.63a2.57,2.57,0,0,1,.62-1.76,1.76,1.76,0,0,1,1.36-.57,1.41,1.41,0,0,1,1,.41,1.5,1.5,0,0,1,.41,1.11A2.7,2.7,0,0,1,105.67,4a2,2,0,0,1-.72.83,1.85,1.85,0,0,1-1,.28,1.65,1.65,0,0,1-.77-.18,1.24,1.24,0,0,1-.53-.51A1.59,1.59,0,0,1,102.49,3.63Zm.62-.06a1.14,1.14,0,0,0,.24.78.81.81,0,0,0,.63.26.91.91,0,0,0,.39-.08,1,1,0,0,0,.36-.24,1.76,1.76,0,0,0,.29-.37,2.34,2.34,0,0,0,.19-.46,2.14,2.14,0,0,0,.1-.65,1.1,1.1,0,0,0-.24-.76.83.83,0,0,0-.63-.27,1,1,0,0,0-.53.14,1.34,1.34,0,0,0-.43.4,1.84,1.84,0,0,0-.28.62A2.64,2.64,0,0,0,103.11,3.57Z"/><path class="cls-1" d="M106.27,5,107,1.38h.55l-.16.74A2.48,2.48,0,0,1,108,1.5a.93.93,0,0,1,.55-.2,1,1,0,0,1,.45.13l-.25.58a.57.57,0,0,0-.35-.12,1,1,0,0,0-.67.36,2.75,2.75,0,0,0-.53,1.3L106.86,5Z"/><path class="cls-1" d="M111.27,3.78l.6.06a1.86,1.86,0,0,1-.6.85,1.63,1.63,0,0,1-1.11.4,1.53,1.53,0,0,1-.74-.18,1.24,1.24,0,0,1-.51-.55,1.73,1.73,0,0,1-.18-.81A2.5,2.5,0,0,1,109,2.4a2,2,0,0,1,.71-.83,1.78,1.78,0,0,1,1-.27,1.36,1.36,0,0,1,1,.4,1.52,1.52,0,0,1,.39,1.1,2.62,2.62,0,0,1,0,.55h-2.67a1.28,1.28,0,0,0,0,.19,1.14,1.14,0,0,0,.23.78.74.74,0,0,0,.57.27,1.1,1.1,0,0,0,.63-.21A1.46,1.46,0,0,0,111.27,3.78Zm-1.8-.9h2V2.74a1,1,0,0,0-.23-.71.79.79,0,0,0-.6-.25,1.08,1.08,0,0,0-.72.27A1.69,1.69,0,0,0,109.47,2.88Z"/><path class="cls-1" d="M112.49,5l.76-3.63h.62l-.13.6a2.27,2.27,0,0,1,.62-.53A1.2,1.2,0,0,1,115,1.3a.87.87,0,0,1,.56.18.76.76,0,0,1,.3.5,2,2,0,0,1,.59-.51A1.33,1.33,0,0,1,117,1.3a1,1,0,0,1,.68.21.82.82,0,0,1,.23.61,3.38,3.38,0,0,1-.08.55L117.38,5h-.62l.5-2.4a1.78,1.78,0,0,0,.07-.42.38.38,0,0,0-.11-.28.47.47,0,0,0-.32-.1,1,1,0,0,0-.57.17,1.1,1.1,0,0,0-.44.44,2.72,2.72,0,0,0-.28.83L115.24,5h-.62l.51-2.45a1.74,1.74,0,0,0,.06-.36.39.39,0,0,0-.11-.28.38.38,0,0,0-.29-.11,1,1,0,0,0-.55.17,1.22,1.22,0,0,0-.47.46,3,3,0,0,0-.3.85L113.11,5Z"/><path class="cls-1" d="M120.44,5l1-5h.66l-1,5Z"/><path class="cls-1" d="M121.91,6.4l1-5h.57l-.1.51a2.12,2.12,0,0,1,.57-.46,1.07,1.07,0,0,1,.53-.13,1.1,1.1,0,0,1,.86.38,1.54,1.54,0,0,1,.34,1.08,2.63,2.63,0,0,1-.19,1,2.28,2.28,0,0,1-.46.75,2,2,0,0,1-.55.42,1.33,1.33,0,0,1-.58.13,1.11,1.11,0,0,1-1-.66l-.41,2Zm1.23-2.87a1.83,1.83,0,0,0,0,.56.77.77,0,0,0,.73.5,1,1,0,0,0,.87-.6,2.62,2.62,0,0,0,.32-1.23,1,1,0,0,0-.22-.71.68.68,0,0,0-.55-.25.82.82,0,0,0-.43.12,1.47,1.47,0,0,0-.38.37,2.3,2.3,0,0,0-.28.61A2,2,0,0,0,123.14,3.53Z"/><path class="cls-1" d="M126.17,3.77l.62,0a1.08,1.08,0,0,0,.08.46.58.58,0,0,0,.3.3,1.07,1.07,0,0,0,.51.12,1,1,0,0,0,.62-.16.47.47,0,0,0,.2-.39.48.48,0,0,0-.12-.3,1.82,1.82,0,0,0-.62-.35,5.23,5.23,0,0,1-.62-.3.93.93,0,0,1-.35-.33.8.8,0,0,1-.11-.44.94.94,0,0,1,.34-.73,1.34,1.34,0,0,1,1-.31,1.5,1.5,0,0,1,1.05.32,1.11,1.11,0,0,1,.37.83l-.61,0a.72.72,0,0,0-.23-.52.9.9,0,0,0-.62-.19.82.82,0,0,0-.5.14.43.43,0,0,0-.18.32.35.35,0,0,0,.16.3,2.7,2.7,0,0,0,.53.28,3.35,3.35,0,0,1,.89.48.92.92,0,0,1,.3.69,1,1,0,0,1-.17.53,1.16,1.16,0,0,1-.5.42,2,2,0,0,1-.81.15,1.8,1.8,0,0,1-1.07-.31A1.09,1.09,0,0,1,126.17,3.77Z"/><path class="cls-1" d="M132.09,4.35a1.81,1.81,0,0,1-1.34.74,1,1,0,0,1-.68-.24.79.79,0,0,1-.26-.59,4.34,4.34,0,0,1,.12-.78l.44-2.1H131L130.5,3.7a2.53,2.53,0,0,0-.06.45.41.41,0,0,0,.12.32.53.53,0,0,0,.37.12,1.2,1.2,0,0,0,.51-.13,1.41,1.41,0,0,0,.43-.34,1.79,1.79,0,0,0,.29-.51,4.24,4.24,0,0,0,.17-.66l.33-1.57h.62L132.52,5H132Z"/><path class="cls-1" d="M133.5,5l.76-3.63h.62l-.13.6a2.13,2.13,0,0,1,.62-.53A1.18,1.18,0,0,1,136,1.3a.87.87,0,0,1,.56.18.85.85,0,0,1,.3.5,1.94,1.94,0,0,1,.58-.51,1.37,1.37,0,0,1,.65-.17,1,1,0,0,1,.68.21.82.82,0,0,1,.23.61,3.38,3.38,0,0,1-.08.55L138.39,5h-.62l.5-2.4a2.28,2.28,0,0,0,.06-.42.34.34,0,0,0-.11-.28.44.44,0,0,0-.32-.1,1,1,0,0,0-.56.17,1.19,1.19,0,0,0-.45.44,3,3,0,0,0-.28.83L136.25,5h-.62l.51-2.45a1.56,1.56,0,0,0,.05-.36.36.36,0,0,0-.11-.28.36.36,0,0,0-.29-.11,1,1,0,0,0-.55.17,1.29,1.29,0,0,0-.47.46,2.7,2.7,0,0,0-.29.85L134.12,5Z"/><path class="cls-1" d="M102.47,11.65l.67.09a2.7,2.7,0,0,1-.92,1.31,2.19,2.19,0,0,1-1.35.45,1.93,1.93,0,0,1-1.45-.56,2.24,2.24,0,0,1-.53-1.6A3.2,3.2,0,0,1,99.7,9.1a2.39,2.39,0,0,1,1.8-.79,1.93,1.93,0,0,1,1.29.43,1.75,1.75,0,0,1,.58,1.15l-.63.06a1.36,1.36,0,0,0-.41-.81,1.16,1.16,0,0,0-.8-.27,1.72,1.72,0,0,0-1.48.82,2.79,2.79,0,0,0-.49,1.67,1.7,1.7,0,0,0,.37,1.18,1.31,1.31,0,0,0,1,.4,1.43,1.43,0,0,0,.94-.34A1.83,1.83,0,0,0,102.47,11.65Z"/><path class="cls-1" d="M106,12.75a1.81,1.81,0,0,1-1.34.74,1,1,0,0,1-.68-.24.78.78,0,0,1-.25-.59,4.07,4.07,0,0,1,.11-.78l.44-2.1h.62l-.49,2.32a2.53,2.53,0,0,0-.06.45.38.38,0,0,0,.13.32.49.49,0,0,0,.36.12,1.14,1.14,0,0,0,.51-.13,1.3,1.3,0,0,0,.43-.34,1.94,1.94,0,0,0,.29-.51,4.24,4.24,0,0,0,.17-.66l.33-1.57h.62l-.76,3.63h-.57Z"/><path class="cls-1" d="M107.43,13.41l.76-3.63h.55l-.16.74a2.48,2.48,0,0,1,.55-.62,1,1,0,0,1,.55-.2,1.08,1.08,0,0,1,.46.13l-.26.58a.55.55,0,0,0-.35-.12,1,1,0,0,0-.67.36,2.86,2.86,0,0,0-.53,1.3L108,13.41Z"/><path class="cls-1" d="M110.68,13.41l-.6-3.63h.61l.31,2c0,.22.07.58.12,1.07.12-.26.27-.55.46-.89l1.21-2.18h.66l-2.08,3.63Z"/><path class="cls-1" d="M115.93,12.18l.6.06a1.79,1.79,0,0,1-.6.85,1.63,1.63,0,0,1-1.11.4,1.56,1.56,0,0,1-.74-.18,1.29,1.29,0,0,1-.51-.55,1.73,1.73,0,0,1-.18-.81,2.63,2.63,0,0,1,.28-1.15,2,2,0,0,1,.71-.83,1.78,1.78,0,0,1,1-.27,1.38,1.38,0,0,1,1,.4,1.56,1.56,0,0,1,.38,1.1,3.48,3.48,0,0,1,0,.55H114a1.28,1.28,0,0,0,0,.19,1.19,1.19,0,0,0,.23.78.74.74,0,0,0,.58.27,1.08,1.08,0,0,0,.62-.21A1.31,1.31,0,0,0,115.93,12.18Zm-1.8-.9h2v-.14a1,1,0,0,0-.23-.71.76.76,0,0,0-.6-.25,1.11,1.11,0,0,0-.72.27A1.69,1.69,0,0,0,114.13,11.28Z"/></g><g class="cls-7"><path class="cls-1" d="M251.74,99l1-5h.67l-.92,4.45h2.6L255,99Z"/><path class="cls-1" d="M255.71,97.58a2.51,2.51,0,0,1,.62-1.76,1.73,1.73,0,0,1,1.36-.58,1.43,1.43,0,0,1,1.06.41,1.53,1.53,0,0,1,.4,1.11,2.7,2.7,0,0,1-.25,1.17,1.87,1.87,0,0,1-.72.82,1.81,1.81,0,0,1-1,.29,1.65,1.65,0,0,1-.77-.18,1.24,1.24,0,0,1-.53-.51A1.59,1.59,0,0,1,255.71,97.58Zm.62-.06a1.14,1.14,0,0,0,.24.78.86.86,0,0,0,.63.26.91.91,0,0,0,.39-.08,1.17,1.17,0,0,0,.37-.24,1.78,1.78,0,0,0,.28-.38,2.25,2.25,0,0,0,.19-.45,2.22,2.22,0,0,0,.11-.65,1.13,1.13,0,0,0-.25-.77.83.83,0,0,0-.63-.27,1.08,1.08,0,0,0-.53.14,1.38,1.38,0,0,0-.43.41,1.68,1.68,0,0,0-.28.62A2.51,2.51,0,0,0,256.33,97.52Z"/><path class="cls-1" d="M259.5,99l.76-3.64h.54l-.15.75a2.75,2.75,0,0,1,.55-.63.93.93,0,0,1,.55-.2,1.08,1.08,0,0,1,.45.14L262,96a.57.57,0,0,0-.35-.12,1,1,0,0,0-.67.37,2.7,2.7,0,0,0-.54,1.3L260.08,99Z"/><path class="cls-1" d="M264.5,97.72l.6.07a1.81,1.81,0,0,1-.59.85,1.67,1.67,0,0,1-1.12.4,1.56,1.56,0,0,1-.74-.18,1.24,1.24,0,0,1-.51-.55,1.73,1.73,0,0,1-.18-.81,2.47,2.47,0,0,1,.28-1.15,2,2,0,0,1,.71-.84,1.78,1.78,0,0,1,.95-.27,1.39,1.39,0,0,1,1,.41,1.51,1.51,0,0,1,.39,1.1,3.51,3.51,0,0,1-.05.55H262.6a1.28,1.28,0,0,0,0,.19,1.14,1.14,0,0,0,.23.78.74.74,0,0,0,.58.27,1.08,1.08,0,0,0,.62-.21A1.29,1.29,0,0,0,264.5,97.72Zm-1.8-.9h2v-.13a1,1,0,0,0-.23-.72.79.79,0,0,0-.6-.25,1.12,1.12,0,0,0-.72.28A1.65,1.65,0,0,0,262.7,96.82Z"/><path class="cls-1" d="M265.73,99l.76-3.64h.62l-.13.6a2.69,2.69,0,0,1,.62-.53,1.2,1.2,0,0,1,.59-.15.87.87,0,0,1,.56.18.79.79,0,0,1,.3.5,2,2,0,0,1,.59-.51,1.33,1.33,0,0,1,.64-.17,1,1,0,0,1,.69.22.78.78,0,0,1,.22.6,3.18,3.18,0,0,1-.07.56L270.63,99H270l.5-2.4a2.53,2.53,0,0,0,.06-.42.4.4,0,0,0-.11-.29.51.51,0,0,0-.32-.1,1.28,1.28,0,0,0-1,.61,2.8,2.8,0,0,0-.28.84L268.48,99h-.62l.51-2.45a1.84,1.84,0,0,0,.06-.36.4.4,0,0,0-.11-.29.42.42,0,0,0-.29-.11,1.16,1.16,0,0,0-.56.17,1.32,1.32,0,0,0-.47.47,2.61,2.61,0,0,0-.29.85L266.35,99Z"/><path class="cls-1" d="M273.69,99l1.05-5h.67l-1.05,5Z"/><path class="cls-1" d="M275.16,100.35l1-5h.58l-.11.51a2.33,2.33,0,0,1,.57-.46,1.16,1.16,0,0,1,1.39.25A1.54,1.54,0,0,1,279,96.7a2.87,2.87,0,0,1-.19,1,2.46,2.46,0,0,1-.46.75,2,2,0,0,1-.56.42,1.31,1.31,0,0,1-.57.13,1.12,1.12,0,0,1-1-.66l-.41,2Zm1.23-2.88a1.83,1.83,0,0,0,.06.57.71.71,0,0,0,.28.36.77.77,0,0,0,.45.14,1,1,0,0,0,.86-.61,2.52,2.52,0,0,0,.33-1.22,1.05,1.05,0,0,0-.22-.72.73.73,0,0,0-.55-.25.78.78,0,0,0-.44.13,1.18,1.18,0,0,0-.37.37,2.44,2.44,0,0,0-.4,1.23Z"/><path class="cls-1" d="M279.42,97.72l.62,0a1,1,0,0,0,.09.45.6.6,0,0,0,.3.31,1.08,1.08,0,0,0,.52.12,1,1,0,0,0,.61-.16.49.49,0,0,0,.21-.39.41.41,0,0,0-.13-.3,1.82,1.82,0,0,0-.61-.36c-.33-.14-.54-.24-.63-.29a1.12,1.12,0,0,1-.35-.33.83.83,0,0,1-.12-.44,1,1,0,0,1,.35-.74,1.37,1.37,0,0,1,1-.31,1.54,1.54,0,0,1,1,.32,1.1,1.1,0,0,1,.37.83l-.61,0a.65.65,0,0,0-.23-.52,1,1,0,0,0-.62-.19.76.76,0,0,0-.5.15.41.41,0,0,0-.18.32.38.38,0,0,0,.16.3,2.35,2.35,0,0,0,.53.27,4,4,0,0,1,.9.49.94.94,0,0,1,.29.69,1,1,0,0,1-.17.53,1.24,1.24,0,0,1-.5.42,2,2,0,0,1-.81.15,1.8,1.8,0,0,1-1.07-.31A1.12,1.12,0,0,1,279.42,97.72Z"/><path class="cls-1" d="M285.35,98.3A1.79,1.79,0,0,1,284,99a1,1,0,0,1-.68-.24.75.75,0,0,1-.26-.59,5.2,5.2,0,0,1,.11-.79l.44-2.1h.62l-.48,2.33a1.83,1.83,0,0,0-.07.45.43.43,0,0,0,.13.32.51.51,0,0,0,.37.12,1.2,1.2,0,0,0,.51-.13,1.53,1.53,0,0,0,.42-.34,2.14,2.14,0,0,0,.3-.51,4.24,4.24,0,0,0,.17-.66l.33-1.58h.62L285.79,99h-.57Z"/><path class="cls-1" d="M286.77,99l.76-3.64h.62l-.13.6a2.69,2.69,0,0,1,.62-.53,1.2,1.2,0,0,1,.59-.15.9.9,0,0,1,.57.18.88.88,0,0,1,.3.5,1.94,1.94,0,0,1,.58-.51,1.34,1.34,0,0,1,.65-.17.93.93,0,0,1,.68.22.78.78,0,0,1,.23.6,3.46,3.46,0,0,1-.08.56L291.67,99h-.62l.5-2.4a2.53,2.53,0,0,0,.06-.42.36.36,0,0,0-.11-.29.51.51,0,0,0-.32-.1,1.13,1.13,0,0,0-.56.17,1.19,1.19,0,0,0-.45.44,2.8,2.8,0,0,0-.28.84L289.52,99h-.62l.51-2.45a1.84,1.84,0,0,0,.06-.36.4.4,0,0,0-.11-.29.42.42,0,0,0-.29-.11,1.1,1.1,0,0,0-.55.17,1.25,1.25,0,0,0-.47.47,2.59,2.59,0,0,0-.3.85L287.39,99Z"/><path class="cls-1" d="M255.69,105.61l.67.09a2.7,2.7,0,0,1-.92,1.31,2.19,2.19,0,0,1-1.35.45,1.91,1.91,0,0,1-1.45-.56,2.2,2.2,0,0,1-.54-1.6,3.2,3.2,0,0,1,.81-2.24,2.36,2.36,0,0,1,1.81-.79,1.88,1.88,0,0,1,1.29.43,1.73,1.73,0,0,1,.58,1.15l-.63.06a1.36,1.36,0,0,0-.41-.82,1.17,1.17,0,0,0-.8-.27,1.76,1.76,0,0,0-1.49.82,2.85,2.85,0,0,0-.49,1.68,1.64,1.64,0,0,0,.38,1.18,1.28,1.28,0,0,0,1,.4,1.5,1.5,0,0,0,.94-.33A2,2,0,0,0,255.69,105.61Z"/><path class="cls-1" d="M259.24,106.72a1.83,1.83,0,0,1-1.34.74.94.94,0,0,1-.68-.25.76.76,0,0,1-.25-.59,4.07,4.07,0,0,1,.11-.78l.44-2.1h.62l-.49,2.32a2.53,2.53,0,0,0-.06.45.38.38,0,0,0,.13.32.49.49,0,0,0,.36.12,1,1,0,0,0,.51-.13,1.3,1.3,0,0,0,.43-.34,1.58,1.58,0,0,0,.29-.51,5.35,5.35,0,0,0,.18-.66l.33-1.57h.62l-.76,3.63h-.57Z"/><path class="cls-1" d="M260.66,107.37l.76-3.63H262l-.16.74a2.48,2.48,0,0,1,.55-.62.89.89,0,0,1,.55-.2,1,1,0,0,1,.46.13l-.26.57a.61.61,0,0,0-.35-.11,1,1,0,0,0-.67.36,2.86,2.86,0,0,0-.53,1.31l-.31,1.45Z"/><path class="cls-1" d="M263.91,107.37l-.59-3.63h.6l.31,2c0,.22.08.58.13,1.07.12-.26.27-.55.45-.88l1.22-2.19h.65l-2.08,3.63Z"/><path class="cls-1" d="M269.17,106.14l.6.06a1.76,1.76,0,0,1-.59.85,1.68,1.68,0,0,1-1.12.41,1.54,1.54,0,0,1-.74-.19,1.27,1.27,0,0,1-.51-.54,1.79,1.79,0,0,1-.18-.81,2.51,2.51,0,0,1,.28-1.16,2,2,0,0,1,.71-.83,1.78,1.78,0,0,1,.95-.27,1.38,1.38,0,0,1,1,.4,1.52,1.52,0,0,1,.39,1.1,3.51,3.51,0,0,1-.05.55h-2.68a1.28,1.28,0,0,0,0,.19,1.14,1.14,0,0,0,.23.78.74.74,0,0,0,.58.27,1.08,1.08,0,0,0,.62-.21A1.31,1.31,0,0,0,269.17,106.14Zm-1.8-.9h2v-.14a1,1,0,0,0-.23-.71.76.76,0,0,0-.6-.25,1.11,1.11,0,0,0-.72.27A1.69,1.69,0,0,0,267.37,105.24Z"/></g><g class="cls-7"><polygon class="cls-1" points="413.89 325 367.82 325 367.69 324.72 340.82 270.59 341.72 270.15 368.44 324 413.89 324 413.89 325"/></g><g class="cls-7"><path class="cls-1" d="M226,306.46l1-5h.67l-.92,4.44h2.6l-.12.57Z"/><path class="cls-1" d="M230,305.08a2.55,2.55,0,0,1,.63-1.76,1.72,1.72,0,0,1,1.35-.57,1.43,1.43,0,0,1,1.06.41,1.5,1.5,0,0,1,.4,1.11,2.69,2.69,0,0,1-.25,1.16,1.89,1.89,0,0,1-.72.83,1.85,1.85,0,0,1-1,.28,1.62,1.62,0,0,1-.77-.18,1.19,1.19,0,0,1-.53-.51A1.49,1.49,0,0,1,230,305.08Zm.62-.06a1.08,1.08,0,0,0,.25.78.8.8,0,0,0,.62.27,1.1,1.1,0,0,0,.4-.08,1.23,1.23,0,0,0,.36-.25,1.44,1.44,0,0,0,.28-.37,1.71,1.71,0,0,0,.19-.46,2.16,2.16,0,0,0,.11-.65,1.07,1.07,0,0,0-.25-.76.8.8,0,0,0-.62-.27,1,1,0,0,0-.53.14,1.34,1.34,0,0,0-.43.4,1.86,1.86,0,0,0-.29.62A2.64,2.64,0,0,0,230.57,305Z"/><path class="cls-1" d="M233.74,306.46l.76-3.63H235l-.15.74a2.67,2.67,0,0,1,.55-.62.93.93,0,0,1,.55-.2,1,1,0,0,1,.45.13l-.25.58a.6.6,0,0,0-.36-.12,1,1,0,0,0-.66.36,2.79,2.79,0,0,0-.54,1.31l-.31,1.45Z"/><path class="cls-1" d="M238.73,305.23l.6.06a1.76,1.76,0,0,1-.59.85,1.63,1.63,0,0,1-1.11.4,1.53,1.53,0,0,1-.74-.18,1.29,1.29,0,0,1-.52-.54,1.92,1.92,0,0,1-.17-.81,2.63,2.63,0,0,1,.27-1.16,2,2,0,0,1,.71-.83,1.8,1.8,0,0,1,.95-.27,1.38,1.38,0,0,1,1,.4,1.52,1.52,0,0,1,.39,1.1,3.51,3.51,0,0,1-.05.55h-2.67a1.54,1.54,0,0,0,0,.19,1.14,1.14,0,0,0,.24.78.71.71,0,0,0,.57.27,1.08,1.08,0,0,0,.62-.21A1.31,1.31,0,0,0,238.73,305.23Zm-1.79-.9h2c0-.06,0-.11,0-.14a1,1,0,0,0-.24-.71.75.75,0,0,0-.59-.25,1.08,1.08,0,0,0-.73.28A1.6,1.6,0,0,0,236.94,304.33Z"/><path class="cls-1" d="M240,306.46l.76-3.63h.61l-.12.6a2.3,2.3,0,0,1,.62-.53,1.17,1.17,0,0,1,.58-.15.83.83,0,0,1,.87.68,1.94,1.94,0,0,1,.58-.51,1.37,1.37,0,0,1,.65-.17.93.93,0,0,1,.68.22.78.78,0,0,1,.23.6,3.38,3.38,0,0,1-.08.55l-.49,2.34h-.62l.5-2.4a2.28,2.28,0,0,0,.06-.42.34.34,0,0,0-.11-.28.44.44,0,0,0-.32-.1,1.13,1.13,0,0,0-.56.17,1.19,1.19,0,0,0-.45.44,3.15,3.15,0,0,0-.28.83l-.36,1.76h-.62l.51-2.45a1.56,1.56,0,0,0,.05-.35.36.36,0,0,0-.11-.29.4.4,0,0,0-.29-.11,1.13,1.13,0,0,0-.55.17,1.29,1.29,0,0,0-.47.46,2.68,2.68,0,0,0-.29.86l-.36,1.71Z"/><path class="cls-1" d="M247.9,306.46l1-5h.67l-1.05,5Z"/><path class="cls-1" d="M249.38,307.85l1.05-5H251l-.11.51a2.12,2.12,0,0,1,.57-.46,1.12,1.12,0,0,1,.53-.13,1.1,1.1,0,0,1,.86.38,1.54,1.54,0,0,1,.35,1.08,2.82,2.82,0,0,1-.19,1,2.46,2.46,0,0,1-.46.75,2,2,0,0,1-.56.42,1.28,1.28,0,0,1-.57.13,1.1,1.1,0,0,1-1-.66l-.41,2ZM250.6,305a1.75,1.75,0,0,0,.06.56.77.77,0,0,0,.73.5,1,1,0,0,0,.86-.6,2.52,2.52,0,0,0,.33-1.23,1,1,0,0,0-.22-.71.7.7,0,0,0-.55-.25.86.86,0,0,0-.44.12,1.35,1.35,0,0,0-.37.38,2.1,2.1,0,0,0-.29.6A2.32,2.32,0,0,0,250.6,305Z"/><path class="cls-1" d="M253.63,305.22l.62,0a1.26,1.26,0,0,0,.08.46.71.71,0,0,0,.31.31,1,1,0,0,0,.51.12,1,1,0,0,0,.62-.17.5.5,0,0,0,.2-.38.48.48,0,0,0-.12-.31,2.15,2.15,0,0,0-.62-.35,4.87,4.87,0,0,1-.63-.3.9.9,0,0,1-.34-.33.77.77,0,0,1-.12-.43,1,1,0,0,1,.34-.74,1.37,1.37,0,0,1,1-.31,1.52,1.52,0,0,1,1,.32,1.08,1.08,0,0,1,.37.83l-.6,0a.69.69,0,0,0-.24-.52.88.88,0,0,0-.61-.19.75.75,0,0,0-.5.15.39.39,0,0,0-.18.31.37.37,0,0,0,.15.3,3.07,3.07,0,0,0,.53.28,3.29,3.29,0,0,1,.9.48.94.94,0,0,1,.29.69,1,1,0,0,1-.16.53,1.08,1.08,0,0,1-.51.42,2,2,0,0,1-.8.15,1.78,1.78,0,0,1-1.07-.31A1.11,1.11,0,0,1,253.63,305.22Z"/><path class="cls-1" d="M259.55,305.81a1.81,1.81,0,0,1-1.33.73,1,1,0,0,1-.68-.24.77.77,0,0,1-.26-.59,4.34,4.34,0,0,1,.12-.78l.43-2.1h.62l-.48,2.32a2.78,2.78,0,0,0-.07.45.41.41,0,0,0,.13.32.51.51,0,0,0,.37.12,1,1,0,0,0,.5-.13,1.3,1.3,0,0,0,.43-.34,1.58,1.58,0,0,0,.29-.51,4.47,4.47,0,0,0,.18-.66l.33-1.57h.62l-.76,3.63h-.57Z"/><path class="cls-1" d="M261,306.46l.76-3.63h.62l-.13.6a2.46,2.46,0,0,1,.62-.53,1.2,1.2,0,0,1,.59-.15.9.9,0,0,1,.57.18.88.88,0,0,1,.3.5,1.82,1.82,0,0,1,.58-.51,1.33,1.33,0,0,1,.64-.17.91.91,0,0,1,.68.22.75.75,0,0,1,.23.6,2.53,2.53,0,0,1-.08.55l-.49,2.34h-.61l.49-2.4a1.78,1.78,0,0,0,.07-.42.38.38,0,0,0-.11-.28.46.46,0,0,0-.32-.1,1.17,1.17,0,0,0-.57.17,1.1,1.1,0,0,0-.44.44,2.82,2.82,0,0,0-.28.83l-.37,1.76h-.62l.52-2.45a2.55,2.55,0,0,0,.05-.35.4.4,0,0,0-.11-.29.42.42,0,0,0-.29-.11,1.1,1.1,0,0,0-.55.17,1.29,1.29,0,0,0-.47.46,2.92,2.92,0,0,0-.3.86l-.36,1.71Z"/><path class="cls-1" d="M229.94,313.1l.66.09a2.69,2.69,0,0,1-.91,1.31,2.19,2.19,0,0,1-1.35.45,1.93,1.93,0,0,1-1.45-.56,2.2,2.2,0,0,1-.54-1.6,3.18,3.18,0,0,1,.82-2.23,2.32,2.32,0,0,1,1.8-.79,1.93,1.93,0,0,1,1.29.42,1.7,1.7,0,0,1,.57,1.15l-.62.06a1.42,1.42,0,0,0-.41-.81,1.17,1.17,0,0,0-.8-.27,1.74,1.74,0,0,0-1.49.82,2.89,2.89,0,0,0-.49,1.67,1.69,1.69,0,0,0,.38,1.18,1.28,1.28,0,0,0,1,.4,1.5,1.5,0,0,0,.94-.33A2,2,0,0,0,229.94,313.1Z"/><path class="cls-1" d="M233.48,314.21a1.81,1.81,0,0,1-1.33.73,1,1,0,0,1-.68-.24.77.77,0,0,1-.26-.59,4.34,4.34,0,0,1,.12-.78l.43-2.1h.62l-.48,2.32a2.53,2.53,0,0,0-.06.45.41.41,0,0,0,.12.32.51.51,0,0,0,.37.12,1.07,1.07,0,0,0,.51-.13,1.37,1.37,0,0,0,.42-.34,1.81,1.81,0,0,0,.3-.51,5.29,5.29,0,0,0,.17-.66l.33-1.57h.62l-.76,3.63h-.57Z"/><path class="cls-1" d="M234.9,314.86l.76-3.63h.54l-.15.74a2.67,2.67,0,0,1,.55-.62.93.93,0,0,1,.55-.2,1,1,0,0,1,.45.13l-.25.58a.59.59,0,0,0-.35-.12,1,1,0,0,0-.67.36,2.79,2.79,0,0,0-.54,1.31l-.3,1.45Z"/><path class="cls-1" d="M238.15,314.86l-.6-3.63h.6l.31,2c0,.22.08.58.13,1.07.12-.26.27-.55.45-.88l1.22-2.19h.65l-2.08,3.63Z"/><path class="cls-1" d="M243.4,313.63l.6.06a1.86,1.86,0,0,1-.6.85,1.63,1.63,0,0,1-1.11.4,1.53,1.53,0,0,1-.74-.18,1.21,1.21,0,0,1-.51-.54,1.79,1.79,0,0,1-.18-.81,2.63,2.63,0,0,1,.27-1.16,2,2,0,0,1,.72-.83,1.74,1.74,0,0,1,.94-.27,1.36,1.36,0,0,1,1,.4,1.52,1.52,0,0,1,.39,1.1,3.51,3.51,0,0,1-.05.55H241.5a1.28,1.28,0,0,0,0,.19,1.14,1.14,0,0,0,.23.78.74.74,0,0,0,.57.27,1.13,1.13,0,0,0,.63-.21A1.46,1.46,0,0,0,243.4,313.63Zm-1.8-.9h2a.82.82,0,0,0,0-.14,1,1,0,0,0-.23-.71.79.79,0,0,0-.6-.25,1.08,1.08,0,0,0-.73.28A1.67,1.67,0,0,0,241.6,312.73Z"/></g><g class="cls-7"><polygon class="cls-1" points="267.29 318.2 221.32 318.2 221.18 318.04 178.84 273.63 179.56 272.94 221.75 317.2 267.29 317.2 267.29 318.2"/></g><g class="cls-7"><path class="cls-1" d="M55.73,291.46l1.05-5h.67l-.93,4.45h2.6l-.12.56Z"/><path class="cls-1" d="M59.69,290.09a2.56,2.56,0,0,1,.62-1.76,1.73,1.73,0,0,1,1.36-.58,1.45,1.45,0,0,1,1.06.41,1.57,1.57,0,0,1,.4,1.11,2.63,2.63,0,0,1-.26,1.16,1.89,1.89,0,0,1-1.7,1.12,1.65,1.65,0,0,1-.77-.18,1.27,1.27,0,0,1-.53-.52A1.55,1.55,0,0,1,59.69,290.09Zm.62-.06a1.09,1.09,0,0,0,.24.77.83.83,0,0,0,.63.27,1.09,1.09,0,0,0,.39-.08,1.23,1.23,0,0,0,.36-.25,1.48,1.48,0,0,0,.29-.37,2.33,2.33,0,0,0,.29-1.1,1.13,1.13,0,0,0-.24-.77.83.83,0,0,0-.63-.27,1.08,1.08,0,0,0-.53.14,1.47,1.47,0,0,0-.43.4,1.81,1.81,0,0,0-.28.63A2.51,2.51,0,0,0,60.31,290Z"/><path class="cls-1" d="M63.47,291.46l.76-3.63h.55l-.16.75a2.75,2.75,0,0,1,.55-.63.93.93,0,0,1,.55-.2,1.08,1.08,0,0,1,.45.14l-.25.57a.57.57,0,0,0-.35-.12.94.94,0,0,0-.67.37,2.81,2.81,0,0,0-.53,1.3l-.31,1.45Z"/><path class="cls-1" d="M68.47,290.23l.6.06a1.86,1.86,0,0,1-.6.85,1.64,1.64,0,0,1-1.11.41,1.57,1.57,0,0,1-.74-.19,1.21,1.21,0,0,1-.51-.54,1.79,1.79,0,0,1-.18-.81,2.47,2.47,0,0,1,.28-1.15,2,2,0,0,1,.71-.84,1.78,1.78,0,0,1,1-.27,1.36,1.36,0,0,1,1,.41,1.49,1.49,0,0,1,.39,1.1,2.53,2.53,0,0,1-.05.54H66.57a1.41,1.41,0,0,0,0,.2,1.18,1.18,0,0,0,.23.77.74.74,0,0,0,.57.27,1.1,1.1,0,0,0,.63-.21A1.46,1.46,0,0,0,68.47,290.23Zm-1.8-.9h2v-.13a1,1,0,0,0-.23-.72.82.82,0,0,0-.6-.25,1.12,1.12,0,0,0-.72.28A1.61,1.61,0,0,0,66.67,289.33Z"/><path class="cls-1" d="M69.69,291.46l.76-3.63h.62l-.13.6a2.69,2.69,0,0,1,.62-.53,1.2,1.2,0,0,1,.59-.15.9.9,0,0,1,.57.18.82.82,0,0,1,.29.5,2.3,2.3,0,0,1,.59-.51,1.33,1.33,0,0,1,.64-.17.93.93,0,0,1,.68.22.78.78,0,0,1,.23.6,3.62,3.62,0,0,1-.08.56l-.49,2.33H74l.49-2.39a1.92,1.92,0,0,0,.07-.43.39.39,0,0,0-.11-.28.53.53,0,0,0-.32-.1,1.24,1.24,0,0,0-1,.61,2.82,2.82,0,0,0-.28.83l-.37,1.76h-.62l.51-2.45a1.67,1.67,0,0,0,.06-.35.4.4,0,0,0-.11-.29.42.42,0,0,0-.29-.11,1.1,1.1,0,0,0-.55.17,1.25,1.25,0,0,0-.47.47,2.85,2.85,0,0,0-.3.85l-.36,1.71Z"/><path class="cls-1" d="M77.64,291.46l1-5h.66l-1,5Z"/><path class="cls-1" d="M79.11,292.86l1-5h.57l-.1.51a2.33,2.33,0,0,1,.57-.46,1.19,1.19,0,0,1,.53-.13,1.13,1.13,0,0,1,.86.38,1.54,1.54,0,0,1,.34,1.08,2.68,2.68,0,0,1-.19,1,2.28,2.28,0,0,1-.46.75,2,2,0,0,1-.55.41,1.34,1.34,0,0,1-.58.14,1.11,1.11,0,0,1-1-.67l-.41,2ZM80.34,290a1.83,1.83,0,0,0,0,.56.77.77,0,0,0,.28.36.72.72,0,0,0,.46.14,1,1,0,0,0,.86-.6,2.5,2.5,0,0,0,.32-1.22,1.05,1.05,0,0,0-.22-.72.71.71,0,0,0-.54-.25.76.76,0,0,0-.44.13,1.2,1.2,0,0,0-.38.37,2.16,2.16,0,0,0-.28.61A1.89,1.89,0,0,0,80.34,290Z"/><path class="cls-1" d="M83.37,290.22l.62,0a1,1,0,0,0,.08.45.6.6,0,0,0,.3.31,1.08,1.08,0,0,0,.52.12,1,1,0,0,0,.61-.17.47.47,0,0,0,.21-.38.5.5,0,0,0-.13-.31,2,2,0,0,0-.61-.35,4.87,4.87,0,0,1-.63-.3.93.93,0,0,1-.35-.33.86.86,0,0,1-.11-.43,1,1,0,0,1,.34-.74,1.42,1.42,0,0,1,1-.31,1.54,1.54,0,0,1,1,.32,1.13,1.13,0,0,1,.37.83l-.61,0a.72.72,0,0,0-.23-.52.9.9,0,0,0-.62-.19.76.76,0,0,0-.5.15.37.37,0,0,0,0,.62,2.35,2.35,0,0,0,.53.27,3.59,3.59,0,0,1,.89.49.89.89,0,0,1,.3.69,1,1,0,0,1-.17.53,1.15,1.15,0,0,1-.5.41,2.05,2.05,0,0,1-1.88-.15A1.11,1.11,0,0,1,83.37,290.22Z"/><path class="cls-1" d="M89.29,290.81a1.84,1.84,0,0,1-1.34.74,1,1,0,0,1-.68-.24.79.79,0,0,1-.26-.59,4.29,4.29,0,0,1,.12-.79l.44-2.1h.62l-.49,2.33a2.32,2.32,0,0,0-.06.45.44.44,0,0,0,.12.32.58.58,0,0,0,.37.11,1,1,0,0,0,.51-.13,1.27,1.27,0,0,0,.43-.34,1.79,1.79,0,0,0,.29-.51,3.68,3.68,0,0,0,.17-.66l.33-1.57h.62l-.76,3.63h-.57Z"/><path class="cls-1" d="M90.7,291.46l.76-3.63h.62l-.13.6a2.69,2.69,0,0,1,.62-.53,1.18,1.18,0,0,1,.59-.15.83.83,0,0,1,.86.68,2.44,2.44,0,0,1,.58-.51,1.37,1.37,0,0,1,.65-.17.93.93,0,0,1,.68.22.78.78,0,0,1,.23.6,3.62,3.62,0,0,1-.08.56l-.49,2.33H95l.5-2.39a2.48,2.48,0,0,0,.06-.43.36.36,0,0,0-.11-.28.49.49,0,0,0-.32-.1,1.13,1.13,0,0,0-.56.17,1.27,1.27,0,0,0-.45.44,3.15,3.15,0,0,0-.28.83l-.36,1.76h-.62l.51-2.45a1.49,1.49,0,0,0,0-.35.36.36,0,0,0-.11-.29.4.4,0,0,0-.29-.11,1.16,1.16,0,0,0-.55.17,1.32,1.32,0,0,0-.47.47,2.61,2.61,0,0,0-.29.85l-.36,1.71Z"/><path class="cls-1" d="M59.67,298.1l.67.09a2.78,2.78,0,0,1-.92,1.32,2.25,2.25,0,0,1-1.35.44,1.93,1.93,0,0,1-1.45-.56,2.23,2.23,0,0,1-.53-1.59,3.18,3.18,0,0,1,.81-2.24,2.35,2.35,0,0,1,1.8-.79,1.86,1.86,0,0,1,1.29.43,1.71,1.71,0,0,1,.58,1.14l-.63.06a1.31,1.31,0,0,0-.41-.81,1.16,1.16,0,0,0-.8-.27,1.72,1.72,0,0,0-1.48.82,2.84,2.84,0,0,0-.49,1.67,1.63,1.63,0,0,0,.38,1.18,1.28,1.28,0,0,0,1,.41,1.49,1.49,0,0,0,.94-.34A1.9,1.9,0,0,0,59.67,298.1Z"/><path class="cls-1" d="M63.22,299.21a1.84,1.84,0,0,1-1.34.74,1,1,0,0,1-.68-.24.79.79,0,0,1-.25-.59,4,4,0,0,1,.11-.79l.44-2.1h.62l-.49,2.33a2.32,2.32,0,0,0-.06.45.41.41,0,0,0,.13.32.53.53,0,0,0,.36.11,1,1,0,0,0,.51-.13A1.18,1.18,0,0,0,63,299a1.58,1.58,0,0,0,.29-.51,4.47,4.47,0,0,0,.18-.66l.32-1.57h.62l-.76,3.63h-.57Z"/><path class="cls-1" d="M64.63,299.86l.76-3.63h.55l-.15.75a2.51,2.51,0,0,1,.54-.63,1,1,0,0,1,.55-.2,1.08,1.08,0,0,1,.46.14l-.26.57a.55.55,0,0,0-.35-.12,1,1,0,0,0-.67.37,2.81,2.81,0,0,0-.53,1.3l-.31,1.45Z"/><path class="cls-1" d="M67.88,299.86l-.59-3.63h.6l.31,2c0,.22.07.58.12,1.07.12-.25.28-.55.46-.88L70,296.23h.66l-2.08,3.63Z"/><path class="cls-1" d="M73.13,298.63l.6.06a1.83,1.83,0,0,1-.59.85A1.68,1.68,0,0,1,72,300a1.57,1.57,0,0,1-.74-.19,1.21,1.21,0,0,1-.51-.54,1.79,1.79,0,0,1-.18-.81,2.68,2.68,0,0,1,.28-1.16,2,2,0,0,1,.71-.83,1.78,1.78,0,0,1,1-.27,1.39,1.39,0,0,1,1,.41,1.55,1.55,0,0,1,.38,1.1,3.35,3.35,0,0,1,0,.54H71.23a1.34,1.34,0,0,0,0,.19,1.19,1.19,0,0,0,.23.78.74.74,0,0,0,.58.27,1.08,1.08,0,0,0,.62-.21A1.31,1.31,0,0,0,73.13,298.63Zm-1.8-.9h2v-.14a1,1,0,0,0-.23-.71.79.79,0,0,0-.6-.25,1.12,1.12,0,0,0-.72.28A1.65,1.65,0,0,0,71.33,297.73Z"/></g><g class="cls-7"><polygon class="cls-1" points="97.03 303.2 50.93 303.2 50.8 302.88 26.18 238.52 27.12 238.16 51.62 302.2 97.03 302.2 97.03 303.2"/></g><g class="cls-7"><polygon class="cls-1" points="75.77 48.07 74.96 47.48 97.82 16.37 138.08 16.37 138.08 17.37 98.33 17.37 75.77 48.07"/></g><g class="cls-7"><path class="cls-1" d="M199.69,36.53l1.05-5h.67L200.48,36h2.6l-.12.56Z"/><path class="cls-1" d="M203.64,35.16a2.52,2.52,0,0,1,.63-1.76,1.7,1.7,0,0,1,1.35-.58,1.43,1.43,0,0,1,1.06.41,1.5,1.5,0,0,1,.4,1.11,2.66,2.66,0,0,1-.25,1.16,1.89,1.89,0,0,1-.72.83,1.86,1.86,0,0,1-1,.29,1.63,1.63,0,0,1-.77-.19,1.19,1.19,0,0,1-.53-.51A1.45,1.45,0,0,1,203.64,35.16Zm.62-.07a1.06,1.06,0,0,0,.25.78.8.8,0,0,0,.62.27,1.1,1.1,0,0,0,.4-.08,1.23,1.23,0,0,0,.36-.25,1.44,1.44,0,0,0,.28-.37,1.71,1.71,0,0,0,.19-.46,2.15,2.15,0,0,0,.11-.64,1.08,1.08,0,0,0-.25-.77.8.8,0,0,0-.62-.27,1.08,1.08,0,0,0-.53.14,1.47,1.47,0,0,0-.43.4,1.86,1.86,0,0,0-.29.62A2.64,2.64,0,0,0,204.26,35.09Z"/><path class="cls-1" d="M207.43,36.53l.76-3.63h.54l-.15.74a2.67,2.67,0,0,1,.55-.62.93.93,0,0,1,.55-.2,1.21,1.21,0,0,1,.45.13l-.25.58a.59.59,0,0,0-.35-.12,1,1,0,0,0-.67.36,2.79,2.79,0,0,0-.54,1.31L208,36.53Z"/><path class="cls-1" d="M212.42,35.3l.61.06a1.86,1.86,0,0,1-.6.85,1.64,1.64,0,0,1-1.11.41,1.54,1.54,0,0,1-.74-.19,1.29,1.29,0,0,1-.52-.54,1.92,1.92,0,0,1-.17-.81,2.66,2.66,0,0,1,.27-1.16,2,2,0,0,1,.72-.83,1.74,1.74,0,0,1,.94-.27,1.42,1.42,0,0,1,1,.4,1.53,1.53,0,0,1,.39,1.11,3.39,3.39,0,0,1-.05.54h-2.67a1.54,1.54,0,0,0,0,.19,1.14,1.14,0,0,0,.24.78.71.71,0,0,0,.57.27,1.13,1.13,0,0,0,.63-.21A1.36,1.36,0,0,0,212.42,35.3Zm-1.79-.9h2c0-.06,0-.11,0-.14a1,1,0,0,0-.24-.71.78.78,0,0,0-.59-.25,1.08,1.08,0,0,0-.73.28A1.6,1.6,0,0,0,210.63,34.4Z"/><path class="cls-1" d="M213.65,36.53l.76-3.63H215l-.13.6a2.3,2.3,0,0,1,.62-.53,1.18,1.18,0,0,1,.59-.15.83.83,0,0,1,.86.68,2.06,2.06,0,0,1,.58-.51,1.37,1.37,0,0,1,.65-.17.93.93,0,0,1,.68.22.78.78,0,0,1,.23.6,3.62,3.62,0,0,1-.08.56l-.49,2.33h-.62l.5-2.4a2.28,2.28,0,0,0,.06-.42.34.34,0,0,0-.11-.28.44.44,0,0,0-.32-.1,1.13,1.13,0,0,0-.56.17,1.27,1.27,0,0,0-.45.44,3.15,3.15,0,0,0-.28.83l-.36,1.76h-.62l.51-2.45a1.49,1.49,0,0,0,.05-.35.36.36,0,0,0-.11-.29.4.4,0,0,0-.29-.11,1.13,1.13,0,0,0-.55.17,1.38,1.38,0,0,0-.47.46,2.68,2.68,0,0,0-.29.86l-.36,1.71Z"/><path class="cls-1" d="M221.59,36.53l1-5h.67l-1.05,5Z"/><path class="cls-1" d="M223.07,37.92l1.05-5h.57l-.11.51a2.33,2.33,0,0,1,.57-.46,1.12,1.12,0,0,1,.53-.13,1.1,1.1,0,0,1,.86.38,1.54,1.54,0,0,1,.35,1.08,2.82,2.82,0,0,1-.19,1,2.24,2.24,0,0,1-.46.75,2,2,0,0,1-.56.42,1.3,1.3,0,0,1-.57.14,1.11,1.11,0,0,1-1-.67l-.41,2Zm1.22-2.87a1.75,1.75,0,0,0,.06.56.77.77,0,0,0,.73.5,1,1,0,0,0,.86-.6,2.52,2.52,0,0,0,.33-1.23,1,1,0,0,0-.22-.71.7.7,0,0,0-.55-.25.78.78,0,0,0-.44.13,1.18,1.18,0,0,0-.37.37,2.23,2.23,0,0,0-.29.6A2.32,2.32,0,0,0,224.29,35.05Z"/><path class="cls-1" d="M227.32,35.29l.62,0a1.26,1.26,0,0,0,.08.46.71.71,0,0,0,.31.31,1,1,0,0,0,.51.12,1,1,0,0,0,.62-.17.5.5,0,0,0,.2-.38.48.48,0,0,0-.12-.31,2.15,2.15,0,0,0-.62-.35,4.87,4.87,0,0,1-.63-.3,1,1,0,0,1-.34-.33.77.77,0,0,1-.12-.43,1,1,0,0,1,.34-.74,1.37,1.37,0,0,1,1-.31,1.52,1.52,0,0,1,1,.32,1.1,1.1,0,0,1,.37.83l-.6,0a.72.72,0,0,0-.23-.52.92.92,0,0,0-.62-.19.75.75,0,0,0-.5.15.39.39,0,0,0-.18.31.4.4,0,0,0,.15.31,3.31,3.31,0,0,0,.53.27,3.6,3.6,0,0,1,.9.48.94.94,0,0,1,.29.69,1,1,0,0,1-.16.53,1.08,1.08,0,0,1-.51.42,2,2,0,0,1-.8.16,1.79,1.79,0,0,1-1.07-.32A1.11,1.11,0,0,1,227.32,35.29Z"/><path class="cls-1" d="M233.24,35.88a1.83,1.83,0,0,1-1.33.74.92.92,0,0,1-.68-.25.77.77,0,0,1-.26-.59,4.34,4.34,0,0,1,.12-.78l.43-2.1h.62l-.48,2.32a2.72,2.72,0,0,0-.07.46.44.44,0,0,0,.13.32.56.56,0,0,0,.37.11,1,1,0,0,0,.5-.13,1.3,1.3,0,0,0,.43-.34,1.58,1.58,0,0,0,.29-.51,4.47,4.47,0,0,0,.18-.66l.33-1.57h.62l-.76,3.63h-.57Z"/><path class="cls-1" d="M234.65,36.53l.76-3.63H236l-.12.6a2.28,2.28,0,0,1,.61-.53,1.2,1.2,0,0,1,.59-.15.83.83,0,0,1,.87.68,1.82,1.82,0,0,1,.58-.51,1.33,1.33,0,0,1,.64-.17.91.91,0,0,1,.68.22.75.75,0,0,1,.23.6,2.68,2.68,0,0,1-.08.56l-.49,2.33h-.61l.49-2.4a1.78,1.78,0,0,0,.07-.42.38.38,0,0,0-.11-.28.46.46,0,0,0-.32-.1,1.13,1.13,0,0,0-.56.17,1.19,1.19,0,0,0-.45.44,2.82,2.82,0,0,0-.28.83l-.37,1.76h-.62l.52-2.45a2.36,2.36,0,0,0,0-.35.4.4,0,0,0-.11-.29.42.42,0,0,0-.29-.11,1.13,1.13,0,0,0-.55.17,1.38,1.38,0,0,0-.47.46,2.92,2.92,0,0,0-.3.86l-.36,1.71Z"/><path class="cls-1" d="M203.63,43.17l.66.09a2.69,2.69,0,0,1-.91,1.31A2.19,2.19,0,0,1,202,45a1.93,1.93,0,0,1-1.45-.56,2.19,2.19,0,0,1-.54-1.59,3.19,3.19,0,0,1,.82-2.24,2.32,2.32,0,0,1,1.8-.79,1.93,1.93,0,0,1,1.29.42,1.7,1.7,0,0,1,.57,1.15l-.62.06a1.42,1.42,0,0,0-.41-.81,1.17,1.17,0,0,0-.8-.27,1.74,1.74,0,0,0-1.49.82,2.89,2.89,0,0,0-.49,1.67,1.69,1.69,0,0,0,.38,1.18,1.28,1.28,0,0,0,1,.4,1.5,1.5,0,0,0,.94-.33A2,2,0,0,0,203.63,43.17Z"/><path class="cls-1" d="M207.17,44.28a1.83,1.83,0,0,1-1.33.74.92.92,0,0,1-.68-.25.77.77,0,0,1-.26-.59,4.34,4.34,0,0,1,.12-.78l.44-2.1h.61l-.48,2.32a2.51,2.51,0,0,0-.06.46.4.4,0,0,0,.12.31.51.51,0,0,0,.37.12,1.07,1.07,0,0,0,.51-.13A1.37,1.37,0,0,0,207,44a1.81,1.81,0,0,0,.3-.51,4.84,4.84,0,0,0,.17-.66l.33-1.57h.62l-.76,3.63H207Z"/><path class="cls-1" d="M208.59,44.93l.76-3.63h.54l-.15.74a2.67,2.67,0,0,1,.55-.62.93.93,0,0,1,.55-.2,1.21,1.21,0,0,1,.45.13l-.25.58a.57.57,0,0,0-.35-.12,1,1,0,0,0-.67.36,2.79,2.79,0,0,0-.54,1.31l-.3,1.45Z"/><path class="cls-1" d="M211.84,44.93l-.6-3.63h.6l.31,2c0,.22.08.58.13,1.07.12-.25.27-.55.45-.88L214,41.3h.65l-2.08,3.63Z"/><path class="cls-1" d="M217.09,43.7l.6.06a1.86,1.86,0,0,1-.6.85A1.64,1.64,0,0,1,216,45a1.54,1.54,0,0,1-.74-.19,1.21,1.21,0,0,1-.51-.54,1.79,1.79,0,0,1-.18-.81,2.54,2.54,0,0,1,.28-1.16,2,2,0,0,1,.71-.83,1.74,1.74,0,0,1,.94-.27,1.4,1.4,0,0,1,1,.4,1.53,1.53,0,0,1,.39,1.11,3.5,3.5,0,0,1,0,.54h-2.67a1.34,1.34,0,0,0,0,.19,1.14,1.14,0,0,0,.23.78.74.74,0,0,0,.57.27,1.13,1.13,0,0,0,.63-.21A1.46,1.46,0,0,0,217.09,43.7Zm-1.8-.9h2v-.14a1,1,0,0,0-.23-.71.82.82,0,0,0-.6-.25,1,1,0,0,0-.72.28A1.61,1.61,0,0,0,215.29,42.8Z"/></g><g class="cls-7"><polygon class="cls-1" points="168.24 81.86 167.52 81.17 199.02 47.89 239.23 47.89 239.23 48.89 199.45 48.89 168.24 81.86"/></g><g class="cls-7"><polygon class="cls-1" points="334.04 130.05 291.42 110.69 251.46 110.69 251.46 109.69 291.64 109.69 334.45 129.14 334.04 130.05"/></g></g></g></svg>