<?xml version="1.0" encoding="UTF-8"?>
<svg width="480px" height="391px" viewBox="0 0 480 391" version="1.1" xmlns="http://www.w3.org/2000/svg" xmlns:xlink="http://www.w3.org/1999/xlink">
    <!-- Generator: Sketch 64 (93537) - https://sketch.com -->
    <title>group (3)</title>
    <desc>Created with Sketch.</desc>
    <g id="Page-1" stroke="none" stroke-width="1" fill="none" fill-rule="evenodd">
        <g id="group-(3)" fill="#FFFFFF" fill-rule="nonzero">
            <path d="M166.864,183 C203.849484,183 237.192837,160.719627 251.345074,126.548877 C265.497311,92.378126 257.671159,53.0468967 231.516185,26.8964988 C205.361211,0.746100964 166.028612,-7.07316747 131.860339,7.08504861 C97.6920655,21.2432647 75.4175283,54.590517 75.4239986,91.576 C75.476928,142.052387 116.387604,182.955905 166.864,183 Z" id="Path"></path>
            <path d="M286.48,258.536 C239.084444,209.92176 166.96821,194.8534 104.072331,220.422744 C41.1764515,245.992089 0.0306784942,307.105361 2.84217094e-14,375 C2.84217094e-14,383.836556 7.163444,391 16,391 L317.76,391 C326.596556,391 333.761074,383.836556 333.761074,375 C333.821952,358.033958 331.202999,341.16466 326,325.016 C318.252932,300.049828 304.711031,277.269828 286.48,258.536 L286.48,258.536 Z" id="Path"></path>
            <circle id="Oval" cx="360" cy="123" r="68"></circle>
            <path d="M360,209.72 C338.552866,209.80057 317.521224,215.641464 299.104,226.632 C302.576,229.736 306.08,232.792 309.36,236.152 C331.146005,258.544778 347.330058,285.77039 356.592,315.608 C359.764076,325.431191 362.103013,335.504139 363.584,345.72 L464,345.72 C472.836556,345.72 480,338.556556 480,329.72 C479.929452,263.475074 426.244926,209.790548 360,209.72 L360,209.72 Z" id="Path"></path>
        </g>
    </g>
</svg>