<?xml version="1.0" encoding="UTF-8"?>
<svg width="448px" height="352px" viewBox="0 0 448 352" version="1.1" xmlns="http://www.w3.org/2000/svg" xmlns:xlink="http://www.w3.org/1999/xlink">
    <!-- Generator: Sketch 64 (93537) - https://sketch.com -->
    <title>car (2)</title>
    <desc>Created with Sketch.</desc>
    <g id="Page-1" stroke="none" stroke-width="1" fill="none" fill-rule="evenodd">
        <g id="car-(2)" fill="#FFFFFF" fill-rule="nonzero">
            <path d="M413.872,119.744 L379.184,38.784 C369.072,15.232 345.984,0 320.352,0 L127.648,0 C102.016,0 78.928,15.232 68.832,38.784 L34.144,119.744 C13.936,130.512 2.84217094e-14,151.552 2.84217094e-14,176 L2.84217094e-14,208 C2.84217094e-14,231.584 12.96,252 32,263.104 L32,320 C32,337.648 46.352,352 64,352 L112,352 C129.648,352 144,337.648 144,320 L144,272 L304,272 L304,320 C304,337.648 318.352,352 336,352 L384,352 C401.648,352 416,337.648 416,320 L416,263.104 C435.04,252 448,231.584 448,208 L448,176 C448,151.552 434.064,130.512 413.872,119.744 Z M88,232 C65.904,232 48,214.096 48,192 C48,169.904 65.904,152 88,152 C110.096,152 128,169.904 128,192 C128,214.096 110.096,232 88,232 Z M272,208 L176,208 C167.168,208 160,200.832 160,192 C160,183.168 167.168,176 176,176 L272,176 C280.832,176 288,183.168 288,192 C288,200.832 280.832,208 272,208 Z M88.672,112 L112.928,57.696 C115.472,51.808 121.248,48 127.648,48 L320.352,48 C326.752,48 332.528,51.808 335.152,57.936 L359.328,112 L88.672,112 Z M360,232 C337.904,232 320,214.096 320,192 C320,169.904 337.904,152 360,152 C382.096,152 400,169.904 400,192 C400,214.096 382.096,232 360,232 Z" id="XMLID_378_"></path>
        </g>
    </g>
</svg>