<?xml version="1.0" encoding="UTF-8"?>
<svg width="480px" height="416px" viewBox="0 0 480 416" version="1.1" xmlns="http://www.w3.org/2000/svg" xmlns:xlink="http://www.w3.org/1999/xlink">
    <!-- Generator: Sketch 64 (93537) - https://sketch.com -->
    <title>folder (1)</title>
    <desc>Created with Sketch.</desc>
    <g id="Page-1" stroke="none" stroke-width="1" fill="none" fill-rule="evenodd">
        <g id="folder-(1)" fill="#FFFFFF" fill-rule="nonzero">
            <path d="M400,64 L252.96,64 C251.034189,63.9911383 249.287586,62.8683224 248.48,61.12 L240,44.16 C226.436596,17.0927268 198.755456,5.68434189e-14 168.48,5.68434189e-14 L80,5.68434189e-14 C35.81722,5.68434189e-14 5.68434189e-14,35.81722 5.68434189e-14,80 L5.68434189e-14,336 C5.68434189e-14,357.217319 8.42854723,377.565632 23.4314575,392.568542 C38.4343678,407.571453 58.7826808,416 80,416 L400,416 C444.18278,416 480,380.18278 480,336 L480,144 C480,99.81722 444.18278,64 400,64 L400,64 Z M386.08,288 C386.08,296.836556 378.916556,304 370.08,304 L306.08,304 C297.243444,304 290.08,296.836556 290.08,288 C290.08,279.163444 297.243444,272 306.08,272 L370.08,272 C378.916556,272 386.08,279.163444 386.08,288 Z" id="Shape"></path>
        </g>
    </g>
</svg>